<svg width="151" height="156" viewBox="0 0 151 156" fill="none" xmlns="http://www.w3.org/2000/svg">
<g id="Asset 3 1" clip-path="url(#clip0_5_117)">
<g id="Layer 2">
<g id="OBJECTS">
<path id="Vector" d="M63.1426 89.2423C62.2323 93.1242 64.4107 97.8519 65.6064 101.532L69.8435 114.902L73.981 127.918C75.3705 132.194 76.2738 136.999 78.8654 140.692C79.0524 140.947 79.3094 141.137 79.6007 141.237C79.892 141.336 80.2031 141.339 80.4907 141.246C80.7783 141.152 81.0282 140.967 81.2055 140.715C81.3828 140.464 81.4787 140.158 81.4799 139.842C81.3928 135.432 79.3976 131.127 78.0183 126.976L73.5967 113.65L69.2979 100.702C68.5937 98.5351 67.8801 96.3387 67.0655 94.2555C66.5133 92.2562 65.4463 90.4383 63.9821 89.0017C63.9108 88.9384 63.8258 88.8947 63.7349 88.8747C63.6441 88.8546 63.5506 88.8591 63.4632 88.8874C63.3758 88.9158 63.2976 88.9672 63.2359 89.0368C63.1741 89.1064 63.131 89.1918 63.1106 89.2849L63.1426 89.2423Z" fill="black"/>
<path id="Vector_2" d="M57.1921 101.805C56.2431 104.815 58.0583 108.519 58.9664 111.408C60.1858 115.161 61.4051 118.914 62.6245 122.667C63.8438 126.42 64.9876 129.94 66.2335 133.539L68.0059 138.994C68.3662 140.722 69.1342 142.341 70.2396 143.703C70.3936 143.839 70.5772 143.933 70.7732 143.976C70.9691 144.019 71.1708 144.01 71.3592 143.948C71.5476 143.887 71.7165 143.776 71.8498 143.626C71.9831 143.477 72.0764 143.293 72.1209 143.092C72.2073 141.33 71.8639 139.561 71.1227 137.949L69.4685 132.858C68.287 129.221 67.1055 125.585 65.9978 121.941C64.8902 118.296 63.6347 114.668 62.4579 111.046C61.5127 108.137 60.745 103.562 58.1385 101.659C58.0597 101.589 57.9671 101.538 57.8679 101.51C57.7686 101.483 57.6653 101.479 57.5657 101.499C57.466 101.519 57.3728 101.562 57.2929 101.626C57.213 101.689 57.1487 101.772 57.1047 101.866L57.1921 101.805Z" fill="black"/>
<path id="Vector_3" d="M50.7004 113.033C50.9002 115.885 51.36 118.719 52.0737 121.496C52.8799 124.353 53.8063 127.204 54.6725 130.059C55.5388 132.913 56.4743 135.745 57.3959 138.582C57.8212 139.891 58.2466 141.2 58.7411 142.486C59.3474 143.888 60.1481 145.194 61.1168 146.362C61.2549 146.571 61.4534 146.731 61.6822 146.815C61.9111 146.9 62.158 146.906 62.3859 146.832C62.6137 146.758 62.81 146.608 62.9454 146.405C63.0808 146.202 63.1478 145.956 63.1364 145.706C63.2367 144.183 63.1088 142.645 62.7571 141.149C62.327 139.826 62.0032 138.5 61.564 137.195C60.6188 134.286 59.7208 131.522 58.7024 128.717C57.6839 125.912 56.8592 123.044 55.7577 120.267C54.7016 117.623 53.4146 115.08 51.9134 112.671C51.8361 112.549 51.7233 112.457 51.5924 112.407C51.4616 112.357 51.3199 112.353 51.1893 112.396C51.0586 112.438 50.9463 112.525 50.8697 112.642C50.7931 112.759 50.7563 112.9 50.7652 113.044L50.7004 113.033Z" fill="black"/>
<path id="Vector_4" d="M44.0091 122.846C43.7781 123.863 43.7637 124.926 43.9668 125.963C44.239 127.177 44.5665 128.373 44.9216 129.561C45.6353 131.757 46.2565 133.951 46.9701 136.148L49.1158 142.751C49.6792 145.12 50.6122 147.387 51.8769 149.461C52.037 149.703 52.2667 149.887 52.5315 149.985C52.7964 150.082 53.0821 150.089 53.3456 150.003C53.6092 149.918 53.8364 149.745 53.9931 149.51C54.1498 149.275 54.2276 148.991 54.2147 148.701C54.0051 146.272 53.4198 143.882 52.4816 141.626L50.3549 135.08C49.6459 132.898 48.937 130.716 48.1404 128.547C47.7575 127.369 47.2964 126.232 46.803 125.09C46.352 124.144 45.7139 123.304 44.9319 122.626C44.8587 122.56 44.7709 122.514 44.677 122.493C44.583 122.472 44.4862 122.477 44.3958 122.506C44.3054 122.535 44.2245 122.589 44.1609 122.661C44.0973 122.733 44.0532 122.822 44.0328 122.918L44.0091 122.846Z" fill="black"/>
<path id="Vector_5" d="M67.6528 74.3168C69.899 85.2781 73.6687 95.9856 77.0958 106.627C78.8114 111.908 80.527 117.188 82.2426 122.468L84.8184 130.395C85.291 131.85 85.7636 133.304 86.2363 134.759C86.5799 136.039 87.2802 137.195 88.2474 138.077C88.4383 138.234 88.6619 138.341 88.8986 138.388C89.1353 138.435 89.3777 138.421 89.6046 138.348C89.8315 138.274 90.0358 138.143 90.1996 137.965C90.3633 137.788 90.4815 137.57 90.5437 137.331C90.7907 136.048 90.6686 134.707 90.1925 133.473C89.8003 132.266 89.4127 131.073 89.0205 129.866L86.4494 121.953C84.6913 116.542 82.9379 111.146 81.1845 105.749C77.7249 95.1018 74.49 84.2045 69.8739 74.0454C69.376 72.9368 67.3941 73.0501 67.6862 74.4668L67.6528 74.3168Z" fill="black"/>
<path id="Vector_6" d="M75.7028 66.4266C74.2418 68.2843 75.7488 71.5576 76.3275 73.621C77.1482 76.5706 78.218 79.4392 79.1632 82.3484C81.0915 88.283 83.0198 94.2176 84.948 100.152C86.8385 105.971 88.729 111.789 90.8408 117.535C91.8967 120.408 92.9802 123.273 93.9255 126.182C94.8707 129.091 95.2563 132.584 97.0517 134.815C97.177 135.2 97.443 135.523 97.791 135.712C98.1391 135.9 98.5407 135.939 98.9076 135.82C99.2745 135.701 99.5766 135.433 99.7473 135.076C99.9181 134.719 99.9437 134.301 99.8183 133.916C99.9555 131.137 98.2045 128.008 97.368 125.433C96.4227 122.524 95.602 119.574 94.7674 116.629C93.0882 110.614 91.1322 104.688 89.2269 98.7298C87.3215 92.7717 85.4459 87.0933 83.5555 81.275C82.6102 78.3659 81.665 75.4568 80.7198 72.5476C80.0345 70.4385 79.1991 66.7379 76.8557 66.0681C76.682 66.0221 76.5009 66.0268 76.3324 66.0815C76.164 66.1363 76.0147 66.2389 75.9012 66.3782L75.7028 66.4266Z" fill="black"/>
<path id="Vector_7" d="M85.6602 66.713C86.9771 72.4604 88.4316 78.0665 90.159 83.7126C91.8865 89.3587 93.5835 94.6287 95.3464 100.054L100.506 116.405L103.096 124.376C103.933 126.95 104.395 130.258 106.254 132.259C106.47 132.455 106.729 132.591 107.007 132.654C107.285 132.717 107.571 132.704 107.839 132.617C108.106 132.531 108.345 132.372 108.533 132.158C108.721 131.944 108.85 131.682 108.91 131.396C109.215 128.804 107.725 125.96 106.912 123.506L104.204 115.171C102.441 109.746 100.604 104.328 98.7952 98.9015C96.9861 93.4749 95.2648 88.0359 93.3727 82.6362C91.4806 77.2366 89.3425 71.6918 87.0206 66.2871C86.9481 66.1393 86.8278 66.0219 86.6816 65.9564C86.5354 65.8908 86.373 65.8814 86.2239 65.9298C86.0749 65.9783 85.949 66.0813 85.8693 66.2203C85.7896 66.3593 85.7612 66.5249 85.7894 66.6871L85.6602 66.713Z" fill="black"/>
<path id="Vector_8" d="M97.8716 73.2303C97.5902 77.8245 99.7319 82.5802 101.103 86.8947L105.595 100.954C107.117 105.637 108.528 110.357 109.962 115.053L112.214 122.362C112.732 124.763 113.621 127.07 114.847 129.193C115.078 129.523 115.402 129.772 115.771 129.902C116.141 130.033 116.537 130.039 116.903 129.92C117.269 129.801 117.586 129.563 117.808 129.24C118.03 128.918 118.146 128.527 118.139 128.124C117.876 125.65 117.223 123.227 116.207 120.952L113.875 114.152C112.358 109.483 110.67 104.853 109.125 100.193L104.682 86.5197C103.265 82.156 102.148 76.6491 99.1503 73.0239C98.8193 72.6168 97.9872 72.5977 97.9549 73.2515L97.8716 73.2303Z" fill="black"/>
<path id="Vector_9" d="M103.25 58.2478C104.908 63.8201 106.104 69.5262 107.725 75.1265C109.346 80.7268 111.185 86.4813 112.954 92.1621C116.45 103.345 120.458 114.457 123.34 125.774C124.035 128.524 128.355 127.088 127.352 124.471C123.031 113.573 119.742 102.227 115.998 91.1733C114.202 85.6459 112.323 80.1455 110.352 74.6911C108.381 69.2368 105.914 63.67 103.942 58.0712C103.9 57.9941 103.833 57.934 103.754 57.901C103.675 57.868 103.588 57.8641 103.509 57.89C103.429 57.916 103.361 57.9701 103.316 58.0432C103.272 58.1164 103.253 58.2041 103.264 58.2914L103.25 58.2478Z" fill="black"/>
<path id="Vector_10" d="M105.228 34.9628C106.568 42.3501 108.478 49.6298 110.939 56.7304C113.243 64.1511 115.607 71.5683 117.967 78.971C120.326 86.3737 122.582 93.5526 124.973 100.816L128.518 111.726C129.742 115.493 131.247 119.137 132.688 122.818C132.843 123.296 133.173 123.696 133.604 123.93C134.036 124.164 134.534 124.212 134.989 124.064C135.444 123.916 135.818 123.584 136.03 123.142C136.242 122.699 136.274 122.181 136.118 121.703C135.139 117.985 134.253 114.268 133.081 110.613L129.536 99.7037C127.135 92.3145 124.734 84.9253 122.237 77.5676C119.739 70.2099 117.441 63.0444 114.981 55.803C112.768 48.5146 109.998 41.4069 106.699 34.5491C106.594 34.3954 106.446 34.2794 106.276 34.2179C106.106 34.1565 105.923 34.1529 105.755 34.2078C105.586 34.2626 105.44 34.373 105.339 34.5226C105.237 34.6722 105.185 34.8532 105.191 35.039L105.228 34.9628Z" fill="black"/>
<path id="Vector_11" d="M110.386 20.8078C111.006 27.4246 113.623 33.9718 115.665 40.2555L122.017 59.8049L134.607 98.5545C135.784 102.176 136.97 105.827 138.138 109.42L140.039 114.801C140.552 116.652 141.29 118.433 142.235 120.101C142.423 120.351 142.679 120.536 142.967 120.632C143.256 120.728 143.563 120.73 143.847 120.637C144.131 120.545 144.378 120.363 144.555 120.116C144.732 119.869 144.83 119.569 144.836 119.256C144.679 116.091 143.194 112.698 142.285 109.665C141.305 106.365 140.246 103.107 139.187 99.8484L132.798 80.1827C128.601 67.2661 124.404 54.3496 120.207 41.433C119.03 37.8111 117.844 34.1602 116.594 30.5944C115.491 26.9613 114.027 23.4483 112.225 20.1137C112.09 19.9109 111.897 19.757 111.675 19.6752C111.452 19.5934 111.213 19.588 110.991 19.6599C110.77 19.7317 110.58 19.8769 110.448 20.0738C110.316 20.2707 110.25 20.5086 110.26 20.752L110.386 20.8078Z" fill="black"/>
<path id="Vector_12" d="M29.3296 125.348C34.4161 116.668 39.2426 107.847 44.0831 99.0213C48.9235 90.1959 54.1053 81.2917 59.0517 72.4158C61.479 68.0249 63.832 63.5938 66.2685 59.1839L69.8227 52.7543C70.3063 51.6115 70.9376 50.5463 71.6995 49.5876C72.856 48.4399 74.335 49.0851 75.7431 49.512C77.8598 50.1429 79.9961 50.9283 82.1441 51.4204C84.2922 51.9124 84.9932 51.0575 86.0436 49.301C88.5357 44.9213 90.7956 40.3918 93.2178 35.9382C98.636 25.8316 103.975 15.6702 109.357 5.59151C109.899 4.57895 108.317 3.7582 107.775 4.77077C102.88 13.7585 97.8925 22.6961 93.0164 31.6939C90.608 36.143 88.1624 40.5719 85.7355 45.011C85.2251 46.1394 84.6448 47.2303 83.998 48.2772C83.3254 49.2194 82.9832 49.2019 81.8684 49.0656C81.4107 48.9712 80.9577 48.8499 80.5116 48.7024C78.2305 47.902 75.8904 47.3167 73.5201 46.9537C72.8212 46.9094 72.1287 47.0569 71.5121 47.3814C70.8955 47.706 70.3765 48.1961 70.007 48.8028C68.7593 50.72 67.6074 52.7044 66.5555 54.7486L59.1022 67.8644C54.1596 76.6105 49.5226 85.4502 44.7895 94.4176C39.4135 104.607 33.9167 114.707 28.8704 125.111C28.7247 125.416 29.1606 125.628 29.3296 125.348Z" fill="#FF0101"/>
<path id="Vector_13" d="M101.821 5.88523C102.522 5.69696 103.234 5.54626 103.953 5.43371C104.709 5.35553 105.459 5.22484 106.196 5.0425C107.543 4.62149 108.927 4.32795 110.331 4.16536L108.582 2.54672C108.731 4.11136 109.224 5.62962 110.023 6.98315C110.759 8.44858 111.761 10.2618 113.509 10.3212C113.927 10.2939 114.315 10.0981 114.589 9.77491C114.864 9.45176 115.004 9.02654 114.98 8.58883C114.911 7.79693 114.565 7.05061 114.008 6.49238C113.639 6.01631 113.306 5.51141 113.013 4.9825C112.968 4.8684 112.931 4.75182 112.899 4.6334L112.8 4.32794C112.857 4.50249 112.696 4.00794 112.701 4.02248L112.583 3.65884C112.484 3.35338 112.389 3.06247 112.29 2.75701C112.19 2.45155 112.209 2.50974 112.172 2.39337C112.148 2.25176 112.104 2.11426 112.039 1.98609C111.954 1.72427 111.94 1.68063 111.997 1.85518C111.9 1.61915 111.755 1.40681 111.572 1.23339C111.389 1.05998 111.173 0.929793 110.938 0.852184C110.704 0.774574 110.458 0.751466 110.217 0.784519C109.976 0.817571 109.747 0.905965 109.546 1.04335C108.313 1.70958 107.024 2.26281 105.694 2.69697C104.961 2.93518 104.367 3.32098 103.644 3.68455C102.921 4.04812 102.308 4.27947 101.649 4.55789C101.506 4.63051 101.394 4.75509 101.334 4.90894C101.274 5.06279 101.27 5.23567 101.322 5.39608C101.374 5.55649 101.479 5.69375 101.618 5.78286C101.757 5.87197 101.921 5.90699 102.079 5.88155L101.821 5.88523Z" fill="#FF0101"/>
</g>
</g>
</g>
<defs>
<clipPath id="clip0_5_117">
<rect width="118.091" height="125.198" fill="white" transform="translate(0 36.4922) rotate(-18)"/>
</clipPath>
</defs>
</svg>
