<svg width="522" height="411" viewBox="0 0 522 411" fill="none" xmlns="http://www.w3.org/2000/svg">
<g clip-path="url(#clip0_5_68)">
<path d="M248.522 102.997C231.714 100.004 214.757 100.899 198.836 105.618C182.916 110.337 168.418 118.766 156.359 130.315C144.299 141.865 134.969 156.255 129.022 172.477C123.075 188.7 120.655 206.363 121.932 224.229C123.208 242.095 128.15 259.733 136.412 275.906C144.673 292.079 156.055 306.397 169.758 317.857C183.462 329.317 199.157 337.641 215.743 342.247C232.33 346.854 249.407 347.63 265.779 344.522L237.44 223.816L248.522 102.997Z" stroke="black" stroke-width="2" stroke-linecap="round" stroke-linejoin="round"/>
<path d="M263.066 211.259C258.627 208.097 254.439 204.539 250.551 200.627C250.461 200.521 250.337 200.454 250.206 200.441C250.076 200.429 249.95 200.471 249.857 200.559C249.763 200.647 249.708 200.774 249.706 200.911C249.703 201.048 249.753 201.185 249.843 201.291C253.535 205.596 257.623 209.505 262.038 212.949C263.065 213.754 264.124 212.019 263.066 211.259Z" fill="black"/>
<path d="M260.186 93.7112L248.687 219.751L358.153 174.251C357.231 172.09 356.246 169.96 355.194 167.804C345.813 148.539 332.227 131.691 315.65 118.762C299.072 105.834 280.018 97.2278 260.186 93.7112Z" stroke="#05FF00" stroke-width="2.09" stroke-linecap="round" stroke-linejoin="round"/>
<path d="M272.53 208.964C269.266 206.233 266.023 203.435 262.781 200.694C261.133 199.323 259.507 197.941 257.892 196.582C256.294 195.163 254.619 193.848 252.877 192.647C252.759 192.579 252.626 192.553 252.499 192.574C252.372 192.594 252.259 192.66 252.176 192.76C252.094 192.861 252.048 192.99 252.046 193.127C252.044 193.264 252.085 193.401 252.163 193.517C253.546 195.146 255.04 196.668 256.632 198.067C258.207 199.561 259.792 201.021 261.42 202.461C264.645 205.384 267.954 208.208 271.253 211.065C272.493 212.143 273.791 210.031 272.53 208.964Z" fill="#00FF1A"/>
<path d="M280.634 203.88C278.575 201.905 276.417 200.052 274.17 198.331L267.159 192.526C262.61 188.625 258.262 184.538 253.535 180.868C253.421 180.791 253.288 180.756 253.159 180.771C253.03 180.785 252.913 180.848 252.829 180.948C252.745 181.048 252.699 181.178 252.7 181.317C252.7 181.455 252.747 181.593 252.832 181.705C256.829 186.049 261.184 189.987 265.518 193.936C267.644 195.799 269.894 197.864 272.099 199.834L275.42 202.739C276.56 203.834 277.757 204.858 279.006 205.805C280.198 206.296 281.494 204.939 280.634 203.88Z" fill="#00FF1A"/>
<path d="M293.263 198.039C286.339 193.665 279.725 188.723 273.488 183.261C270.389 180.596 267.362 177.808 264.219 175.107C262.689 173.706 261.214 172.308 259.567 170.994C258.051 169.479 256.41 168.113 254.667 166.916C254.569 166.856 254.457 166.833 254.35 166.849C254.242 166.866 254.146 166.92 254.076 167.005C254.007 167.089 253.968 167.198 253.967 167.314C253.966 167.43 254.002 167.546 254.069 167.642C255.367 169.377 256.815 170.983 258.392 172.437C259.827 173.913 261.313 175.334 262.779 176.766C265.746 179.631 268.777 182.426 271.87 185.152C278.233 190.71 284.984 195.732 292.052 200.167C293.397 201.135 294.737 198.945 293.263 198.039Z" fill="#00FF1A"/>
<path d="M303.622 193.944C299.533 190.659 295.244 187.617 291.219 184.301C287.194 180.985 283.249 177.833 279.343 174.488C275.436 171.144 271.57 167.721 267.726 164.288L261.886 158.986C260.035 157.132 258.055 155.43 255.965 153.897C255.851 153.833 255.722 153.809 255.6 153.831C255.478 153.852 255.369 153.918 255.291 154.016C255.214 154.114 255.172 154.24 255.172 154.373C255.173 154.505 255.216 154.637 255.294 154.747C256.9 156.844 258.675 158.794 260.596 160.572C262.53 162.53 264.36 164.276 266.268 166.072C269.997 169.649 273.874 173.095 277.761 176.507C285.585 183.546 293.736 190.154 302.179 196.301C302.486 196.481 302.838 196.538 303.165 196.462C303.493 196.385 303.773 196.181 303.953 195.888C304.132 195.596 304.197 195.235 304.136 194.876C304.075 194.517 303.892 194.185 303.622 193.944Z" fill="#00FF1A"/>
<path d="M315.248 190.71C305.324 183.058 295.414 175.216 285.517 167.184C275.755 159.212 266.24 150.771 256.134 143.286C256.058 143.238 255.971 143.218 255.887 143.231C255.804 143.243 255.729 143.287 255.676 143.354C255.624 143.421 255.597 143.508 255.6 143.598C255.603 143.689 255.636 143.777 255.694 143.849C264.611 152.877 274.033 161.322 283.901 169.133C293.75 177.246 303.762 185.116 313.937 192.742C314.069 192.843 314.218 192.916 314.373 192.959C314.529 193.001 314.688 193.011 314.843 192.988C314.998 192.965 315.144 192.91 315.275 192.825C315.405 192.741 315.516 192.628 315.602 192.495C315.688 192.362 315.748 192.21 315.776 192.048C315.805 191.886 315.803 191.717 315.77 191.551C315.737 191.386 315.674 191.226 315.584 191.082C315.495 190.937 315.38 190.811 315.248 190.71Z" fill="#00FF1A"/>
<path d="M326.971 184.963C324.797 183.484 322.551 182.139 320.243 180.935C318.042 179.514 315.882 178.015 313.742 176.448C309.525 173.226 305.239 169.864 300.976 166.548C291.736 159.104 282.49 151.702 273.238 144.341C267.935 140.141 262.6 135.984 257.058 132.161C256.717 131.95 256.352 132.505 256.606 132.7C265.335 140.886 274.767 148.236 283.954 155.735C293.142 163.233 301.647 170.31 310.942 177.379C313.324 179.118 315.792 180.814 318.346 182.47C320.77 184.291 323.417 185.729 326.194 186.734C326.424 186.861 326.686 186.888 326.921 186.812C327.157 186.735 327.347 186.56 327.45 186.325C327.553 186.09 327.56 185.815 327.47 185.559C327.38 185.304 327.201 185.09 326.971 184.963Z" fill="#00FF1A"/>
<path d="M341.115 180.762C335.296 177.832 329.75 174.264 324.574 170.121C319.081 166.129 313.702 161.936 308.366 157.722C297.847 149.336 287.546 140.64 276.956 132.434C270.881 127.682 264.702 123.096 258.264 118.956C258.131 118.863 257.972 118.827 257.823 118.856C257.673 118.886 257.545 118.978 257.467 119.112C257.389 119.246 257.366 119.412 257.405 119.573C257.444 119.734 257.54 119.876 257.673 119.969C268.592 128.305 279.206 136.993 289.865 145.775C300.525 154.556 310.994 163.489 322.006 171.693C325.018 173.907 328.051 176.112 331.126 178.238C334.021 180.376 337.131 182.142 340.385 183.497C340.735 183.626 341.11 183.606 341.426 183.44C341.743 183.275 341.975 182.979 342.072 182.616C342.168 182.253 342.122 181.854 341.943 181.507C341.763 181.159 341.465 180.891 341.115 180.762Z" fill="#00FF1A"/>
<path d="M354.697 174.109C349.08 169.475 343.109 165.368 336.859 161.838C330.45 157.974 324.218 153.877 318.077 149.477C305.27 140.253 292.569 130.92 279.973 121.478C272.889 116.231 265.922 110.463 258.618 105.469C258.343 105.284 258.062 105.74 258.251 105.909C263.999 111.326 270.013 116.411 276.263 121.141C282.509 126.1 288.833 130.982 295.234 135.789C307.692 145.056 319.975 154.671 333.104 162.712C340.159 166.736 346.904 171.397 353.258 176.638C354.674 177.804 356.137 175.379 354.697 174.109Z" fill="#00FF1A"/>
<path d="M350.495 157.247C326.701 142.747 303.239 127.301 279.822 111.892C273.476 107.297 266.832 103.215 259.951 99.685C259.721 99.5939 259.502 99.9039 259.702 100.097C264.9 104.659 270.438 108.752 276.251 112.329C282.089 116.269 288.012 120.167 293.784 124.081C305.425 131.746 317.136 139.319 328.916 146.8L349.032 159.672C350.723 160.645 352.196 158.186 350.495 157.247Z" fill="#00FF1A"/>
<path d="M278.62 349.368C287.469 347.665 296.014 344.822 304.07 340.9C329.413 328.54 348.603 306.006 357.694 277.932C366.786 249.858 365.09 218.375 352.954 189.955L251.088 232.271L278.62 349.368Z" stroke="black" stroke-width="1.94" stroke-linecap="round" stroke-linejoin="round"/>
<path d="M279.189 242.582C278.998 242.368 278.763 242.204 278.506 242.103L278.071 242.025C277.793 242.009 277.52 242.063 277.274 242.181C277.079 242.205 276.9 242.292 276.761 242.431C276.623 242.576 276.52 242.755 276.461 242.955C276.403 243.155 276.39 243.37 276.423 243.583C276.416 243.796 276.475 244.012 276.591 244.197L276.785 244.595C276.964 244.815 277.193 244.984 277.447 245.085L277.839 245.184C278.112 245.22 278.384 245.178 278.626 245.061C278.908 244.999 279.155 244.838 279.328 244.602C279.472 244.47 279.569 244.291 279.607 244.089C279.69 243.901 279.715 243.687 279.678 243.475C279.627 243.261 279.529 243.06 279.392 242.889L279.189 242.582Z" fill="black"/>
<path d="M294.569 231.367L294.432 231.086L294.18 230.948C294.034 230.881 293.876 230.858 293.724 230.881C293.627 230.894 293.537 230.938 293.467 231.006L293.211 231.131C293.108 231.152 293.012 231.198 292.933 231.267C292.862 231.33 292.812 231.415 292.788 231.511C292.726 231.598 292.695 231.705 292.698 231.816C292.667 231.91 292.662 232.013 292.684 232.113C292.71 232.215 292.757 232.311 292.821 232.394C292.853 232.54 292.92 232.677 293.015 232.793L293.116 233.324L293.276 233.652C293.319 233.822 293.397 233.982 293.504 234.12C293.552 234.225 293.624 234.316 293.714 234.384C293.803 234.453 293.906 234.496 294.012 234.511C294.117 234.516 294.22 234.495 294.313 234.449C294.406 234.404 294.486 234.336 294.547 234.25L294.675 234.188L294.777 233.964L294.814 233.714L294.881 233.362L294.925 232.964L295.053 232.901L295.187 232.633L295.222 232.325L295.085 232.044L294.948 231.763L294.569 231.367Z" fill="black"/>
<path d="M292.798 264.515C292.701 264.398 292.589 264.296 292.465 264.213L292.397 264.072C292.261 263.984 292.109 263.93 291.954 263.914C291.799 263.899 291.646 263.923 291.507 263.984C291.356 264.015 291.217 264.082 291.101 264.182C291.025 264.314 290.981 264.465 290.971 264.623L291.04 264.763C291.029 264.912 291.04 265.063 291.073 265.211L291.116 265.625C291.175 265.854 291.28 266.07 291.425 266.258C291.573 266.425 291.755 266.556 291.954 266.638L292.281 266.71C292.495 266.747 292.709 266.713 292.895 266.614C293.046 266.584 293.185 266.516 293.301 266.416C293.417 266.298 293.499 266.148 293.539 265.981C293.597 265.773 293.606 265.55 293.565 265.33C293.506 265.101 293.401 264.885 293.257 264.697L292.798 264.515Z" fill="black"/>
<path d="M276.487 262.754C276.373 262.613 276.228 262.503 276.067 262.436L275.828 262.379C275.659 262.369 275.493 262.401 275.343 262.47L275.129 262.574C275.045 262.659 274.978 262.761 274.931 262.874C274.895 262.955 274.876 263.043 274.873 263.134L274.702 263.218C274.647 263.231 274.597 263.256 274.552 263.291C274.552 263.291 274.552 263.291 274.61 263.408C274.611 263.448 274.62 263.488 274.638 263.524C274.656 263.561 274.681 263.593 274.712 263.619C274.738 263.721 274.785 263.817 274.85 263.9C274.909 263.943 274.977 263.97 275.046 263.978L275.196 263.905L275.367 263.822C275.477 263.878 275.598 263.899 275.715 263.884C275.832 263.854 275.94 263.801 276.036 263.728C276.154 263.703 276.264 263.65 276.356 263.571C276.441 263.481 276.505 263.371 276.543 263.248C276.587 263.127 276.595 262.992 276.565 262.86C276.552 262.727 276.49 262.601 276.394 262.509L276.487 262.754Z" fill="black"/>
<path d="M291.304 253.641C291.219 253.537 291.107 253.46 290.985 253.42C290.772 253.312 290.547 253.236 290.319 253.194L289.839 253.079L289.69 253.152L289.476 253.256L289.348 253.319C289.278 253.338 289.213 253.37 289.155 253.413C289.137 253.525 289.14 253.642 289.164 253.757C289.18 253.843 289.22 253.925 289.279 253.991C289.294 254.078 289.334 254.159 289.393 254.225L289.844 254.498C290.046 254.614 290.259 254.704 290.478 254.769C290.565 254.81 290.658 254.834 290.751 254.839L291.007 254.714L291.264 254.589C291.342 254.471 291.39 254.332 291.401 254.184C291.413 254.036 291.387 253.885 291.328 253.745L291.304 253.641Z" fill="black"/>
<path d="M313.451 244.638C313.317 244.472 313.145 244.345 312.954 244.271L312.769 244.216C312.615 244.17 312.456 244.159 312.303 244.183L312.004 244.328C311.948 244.34 311.897 244.365 311.854 244.401L311.576 244.537C311.343 244.654 311.161 244.856 311.061 245.107L310.89 245.191C310.746 245.323 310.648 245.502 310.611 245.704C310.58 245.912 310.612 246.129 310.703 246.326C310.753 246.484 310.826 246.635 310.92 246.771C311.127 246.913 311.372 246.97 311.606 246.93L311.777 246.847C312.037 246.91 312.304 246.89 312.544 246.792L312.95 246.594C313.254 246.45 313.484 246.182 313.59 245.846C313.661 245.529 313.625 245.188 313.49 244.88L313.451 244.638Z" fill="black"/>
<path d="M310.548 278.83C310.321 278.941 310.152 279.145 310.077 279.399C310.003 279.653 310.029 279.936 310.15 280.184C310.272 280.433 310.478 280.627 310.724 280.725C310.97 280.822 311.236 280.815 311.462 280.704C311.689 280.594 311.858 280.389 311.933 280.135C312.008 279.881 311.981 279.599 311.86 279.35C311.739 279.102 311.533 278.907 311.287 278.81C311.04 278.712 310.775 278.719 310.548 278.83Z" fill="black"/>
<path d="M295.846 292.411C295.769 292.327 295.674 292.263 295.571 292.226C295.472 292.189 295.369 292.172 295.267 292.177C295.165 292.182 295.066 292.208 294.976 292.255L294.805 292.338C294.695 292.422 294.615 292.543 294.576 292.682L294.311 293.711C294.263 293.802 294.25 293.912 294.275 294.018C294.301 294.12 294.348 294.216 294.412 294.299C294.44 294.41 294.49 294.514 294.561 294.604C294.629 294.689 294.723 294.747 294.825 294.765C295.017 294.833 295.22 294.826 295.398 294.747L295.569 294.663C295.665 294.575 295.737 294.46 295.777 294.33L296.097 293.304C296.135 293.209 296.147 293.103 296.132 292.997C296.105 292.886 296.054 292.781 295.983 292.692C295.96 292.589 295.913 292.492 295.846 292.411Z" fill="black"/>
<path d="M283.283 281.57C283.136 281.413 282.946 281.311 282.745 281.281C282.647 281.239 282.54 281.229 282.441 281.255C282.297 281.28 282.165 281.345 282.057 281.443L281.779 281.579L281.601 281.81L281.478 282.102L281.41 282.396L281.547 282.678C281.575 282.843 281.651 282.999 281.765 283.123C281.79 283.225 281.837 283.321 281.902 283.404C282.013 283.526 282.149 283.619 282.298 283.675C282.318 283.732 282.345 283.788 282.378 283.839C282.481 283.923 282.602 283.977 282.727 283.994C282.853 284.012 282.978 283.993 283.088 283.939C283.199 283.885 283.291 283.798 283.355 283.688C283.418 283.579 283.45 283.45 283.447 283.317C283.427 283.26 283.401 283.204 283.367 283.153L283.402 282.846L283.265 282.565C283.237 282.399 283.161 282.244 283.048 282.12C283.126 282.057 283.188 281.974 283.229 281.879C283.27 281.784 283.288 281.678 283.283 281.57Z" fill="black"/>
<path d="M299.806 319.137L299.554 318.999C299.423 318.95 299.286 318.927 299.152 318.934C299.064 318.951 298.983 318.99 298.916 319.049C298.773 319.076 298.641 319.14 298.532 319.236L298.275 319.362L298.153 319.653C298.117 319.754 298.098 319.861 298.096 319.971L297.669 320.179C297.585 320.206 297.506 320.245 297.434 320.294C297.305 320.315 297.187 320.372 297.092 320.461L296.989 320.685C296.952 320.82 296.941 320.963 296.957 321.107C296.976 321.202 297.019 321.291 297.083 321.365C297.11 321.503 297.174 321.633 297.265 321.739C297.451 321.958 297.701 322.104 297.969 322.151C298.313 322.163 298.651 322.097 298.959 321.958C299.268 321.814 299.53 321.586 299.721 321.296L299.914 321.202L300.117 320.697C300.157 320.519 300.174 320.335 300.168 320.15L300.136 319.759C300.085 319.526 299.97 319.309 299.806 319.137Z" fill="black"/>
<path d="M317.911 297.399C317.628 297.537 317.416 297.793 317.323 298.111C317.23 298.428 317.263 298.781 317.414 299.092C317.566 299.403 317.824 299.646 318.131 299.768C318.439 299.89 318.771 299.88 319.054 299.742C319.338 299.604 319.549 299.348 319.643 299.03C319.736 298.713 319.703 298.36 319.552 298.049C319.4 297.739 319.142 297.495 318.835 297.374C318.527 297.252 318.195 297.261 317.911 297.399Z" fill="black"/>
<path d="M308.418 301.913L308.155 301.374L308.053 301.163C307.949 301.088 307.834 301.036 307.713 301.01C307.642 301.024 307.576 301.056 307.521 301.104C307.41 301.127 307.308 301.177 307.222 301.249L306.986 301.364L306.794 301.458C306.73 301.562 306.689 301.681 306.673 301.807C306.646 301.929 306.646 302.058 306.672 302.185L306.878 302.606L307.004 302.864L307.129 303.122C307.252 303.26 307.404 303.366 307.57 303.429L307.698 303.366C307.79 303.4 307.887 303.412 307.981 303.403C308.084 303.382 308.179 303.336 308.259 303.267L308.43 303.184C308.521 303.091 308.592 302.977 308.637 302.85L308.766 302.788C308.819 302.618 308.829 302.433 308.795 302.251C308.795 302.251 308.795 302.251 308.704 302.064C308.621 301.988 308.523 301.936 308.418 301.913Z" fill="black"/>
<path d="M289.843 306.738C289.816 306.627 289.765 306.523 289.694 306.433C289.617 306.349 289.522 306.286 289.419 306.249C289.316 306.215 289.209 306.198 289.104 306.199L288.582 306.106L288.454 306.168C288.358 306.186 288.27 306.229 288.197 306.293C288.139 306.297 288.086 306.323 288.048 306.366C287.979 306.423 287.935 306.507 287.924 306.601L287.817 306.653L287.897 306.817C287.916 306.912 287.96 307.001 288.023 307.075C288.042 307.17 288.085 307.259 288.148 307.332L288.599 307.606C288.685 307.689 288.782 307.759 288.886 307.814C288.987 307.858 289.096 307.875 289.201 307.863C289.311 307.839 289.414 307.79 289.5 307.717L289.778 307.582C289.845 307.579 289.906 307.549 289.949 307.498C290.007 307.495 290.06 307.469 290.099 307.425C290.141 307.29 290.134 307.139 290.077 307.001L289.843 306.738Z" fill="black"/>
<path d="M329.631 272.278L329.345 271.692C329.315 271.574 329.26 271.462 329.185 271.364C329.001 271.191 328.766 271.098 328.529 271.104C328.419 271.128 328.317 271.178 328.23 271.25L328.016 271.354C327.898 271.462 327.812 271.605 327.767 271.766L327.719 271.993C327.761 272.153 327.835 272.305 327.936 272.438L328.267 273.117L328.382 273.352C328.406 273.445 328.449 273.533 328.507 273.609C328.639 273.713 328.797 273.769 328.955 273.768C329.119 273.805 329.286 273.785 329.43 273.711C329.573 273.637 329.691 273.519 329.767 273.372C329.85 273.244 329.895 273.091 329.897 272.932C329.864 272.842 329.822 272.755 329.771 272.674C329.741 272.583 329.699 272.496 329.645 272.416L329.631 272.278Z" fill="black"/>
<path d="M308.187 262.868C308.025 262.838 307.861 262.83 307.699 262.845L307.87 262.762C307.755 262.748 307.639 262.746 307.524 262.756L307.203 262.913L306.712 263.153C306.448 263.399 306.258 263.723 306.162 264.088C306.106 264.255 306.067 264.43 306.046 264.609C306.045 264.739 306.037 264.868 306.024 264.997C306.007 265.306 306.052 265.62 306.156 265.918C306.161 266.007 306.184 266.095 306.223 266.175C306.263 266.256 306.318 266.328 306.384 266.387C306.451 266.434 306.524 266.467 306.601 266.485C306.678 266.502 306.756 266.503 306.831 266.488C306.993 266.462 307.135 266.368 307.225 266.227C307.314 266.085 307.345 265.908 307.309 265.733C307.294 265.674 307.266 265.618 307.229 265.569C307.229 265.569 307.297 265.275 307.229 265.569L307.357 265.506L307.571 265.402L307.887 265.074L308.122 264.959C308.122 264.959 308.122 264.959 308.25 264.897L308.464 264.792C308.553 264.706 308.614 264.594 308.642 264.467C308.669 264.341 308.661 264.206 308.619 264.079C308.721 263.998 308.794 263.883 308.828 263.75C308.861 263.617 308.854 263.474 308.806 263.34C308.758 263.206 308.673 263.088 308.562 263.003C308.45 262.919 308.319 262.871 308.187 262.868Z" fill="black"/>
<path d="M338.304 254.908C338.174 254.749 338.006 254.629 337.819 254.565L337.547 254.495C337.351 254.48 337.157 254.505 336.975 254.57L336.719 254.695C336.631 254.777 336.563 254.879 336.521 254.995L336.179 255.162L335.987 255.256C335.921 255.353 335.887 255.471 335.887 255.594C335.895 255.665 335.928 255.732 335.979 255.782C336.009 255.9 336.064 256.012 336.139 256.11L336.241 256.321L336.344 256.531C336.432 256.61 336.54 256.659 336.651 256.672L337.009 256.7L337.372 256.523L337.5 256.461C337.645 256.437 337.778 256.372 337.885 256.273C338.028 256.244 338.159 256.18 338.27 256.085C338.363 255.981 338.427 255.849 338.455 255.705C338.512 255.564 338.526 255.406 338.497 255.249C338.465 255.103 338.398 254.966 338.303 254.851L338.304 254.908Z" fill="black"/>
<path d="M324.663 253.846C324.476 253.707 324.261 253.621 324.039 253.599C323.884 253.58 323.729 253.594 323.583 253.64C323.438 253.687 323.305 253.764 323.191 253.868L322.914 254.003C322.786 254.049 322.665 254.108 322.55 254.18L322.166 254.368C322.028 254.497 321.937 254.674 321.908 254.871C321.883 254.968 321.877 255.072 321.891 255.174C321.905 255.277 321.938 255.378 321.988 255.47C322.028 255.632 322.102 255.784 322.206 255.915C322.404 256.059 322.642 256.12 322.87 256.084L323.312 256.013L323.675 255.836L323.846 255.753L323.953 255.701C324.128 255.667 324.29 255.592 324.429 255.483C324.569 255.373 324.681 255.23 324.76 255.065C324.838 254.9 324.88 254.716 324.882 254.526C324.885 254.336 324.848 254.145 324.774 253.966C324.74 253.924 324.702 253.883 324.663 253.846Z" fill="black"/>
<path d="M317.074 227.817C316.884 227.694 316.663 227.647 316.454 227.684L316.197 227.809L316.069 227.872C315.949 227.914 315.834 227.97 315.727 228.039L315.492 228.153C315.379 228.227 315.294 228.339 315.251 228.474L315.172 228.745L314.958 228.849C314.881 228.929 314.831 229.035 314.817 229.152C314.802 229.268 314.824 229.389 314.877 229.497C314.926 229.605 315.007 229.695 315.107 229.752C315.207 229.808 315.319 229.829 315.426 229.81L315.619 229.716C315.714 229.806 315.834 229.86 315.958 229.869C316.184 229.939 316.421 229.926 316.628 229.832C316.747 229.788 316.862 229.732 316.97 229.666L317.098 229.603L317.355 229.478C317.475 229.349 317.56 229.188 317.602 229.009C317.624 228.916 317.627 228.818 317.612 228.721C317.596 228.624 317.562 228.53 317.512 228.444C317.445 228.188 317.288 227.963 317.074 227.817Z" fill="black"/>
<path d="M329.455 234.975C329.361 234.849 329.239 234.749 329.102 234.684L328.987 234.45L328.896 234.262L328.589 234.122L328.418 234.205C328.316 234.228 328.221 234.274 328.14 234.341L327.927 234.445L327.756 234.528C327.694 234.62 327.656 234.728 327.645 234.843C327.617 234.946 327.616 235.057 327.642 235.164L327.757 235.398L327.71 235.682C327.758 235.831 327.827 235.974 327.915 236.104C327.962 236.254 328.031 236.397 328.121 236.525C328.226 236.645 328.36 236.731 328.506 236.773C328.644 236.825 328.789 236.844 328.93 236.827C329.074 236.804 329.207 236.739 329.315 236.639L329.571 236.514C329.695 236.373 329.794 236.207 329.861 236.025L329.897 235.717C329.912 235.51 329.872 235.299 329.783 235.106L329.455 234.975Z" fill="black"/>
<path d="M336.774 217.541C336.586 217.677 336.454 217.884 336.403 218.124C336.352 218.364 336.386 218.622 336.497 218.851C336.609 219.08 336.792 219.265 337.012 219.373C337.233 219.48 337.477 219.504 337.7 219.439C337.889 219.303 338.021 219.096 338.071 218.856C338.122 218.616 338.089 218.358 337.977 218.129C337.866 217.9 337.683 217.715 337.463 217.607C337.242 217.5 336.998 217.476 336.774 217.541Z" fill="black"/>
<path d="M325.659 217.48L325.867 217.582C325.742 217.519 325.623 217.44 325.515 217.348L325.184 217.103L324.533 216.637C324.305 216.473 324.033 216.399 323.77 216.429C323.641 216.449 323.523 216.506 323.428 216.596C323.308 216.658 323.209 216.757 323.143 216.88C323.069 216.989 323.02 217.116 322.999 217.251C322.979 217.387 322.987 217.528 323.023 217.664L323.149 217.922C323.236 218.094 323.363 218.242 323.517 218.351C323.849 218.653 324.17 218.932 324.481 219.244C324.612 219.383 324.772 219.489 324.945 219.551C325.119 219.613 325.301 219.63 325.475 219.6C325.774 219.584 326.048 219.45 326.245 219.225C326.39 218.968 326.436 218.656 326.374 218.35C326.323 218.137 326.225 217.936 326.088 217.764C325.967 217.635 325.819 217.537 325.659 217.48Z" fill="black"/>
<path d="M347.198 230.179C346.966 230.293 346.792 230.503 346.716 230.763C346.64 231.023 346.666 231.313 346.791 231.568C346.915 231.822 347.126 232.022 347.379 232.122C347.631 232.222 347.903 232.214 348.136 232.101C348.368 231.987 348.542 231.777 348.618 231.517C348.694 231.257 348.668 230.967 348.543 230.713C348.419 230.458 348.208 230.259 347.955 230.159C347.703 230.059 347.431 230.066 347.198 230.179Z" fill="black"/>
<path d="M351.693 260.009C351.663 259.891 351.608 259.779 351.533 259.681C351.443 259.595 351.338 259.528 351.225 259.484C351.112 259.442 350.994 259.421 350.877 259.421C350.76 259.451 350.652 259.504 350.557 259.578L350.215 259.744C350.103 259.85 350.024 259.989 349.987 260.145L349.95 260.395C349.976 260.552 350.048 260.7 350.156 260.817L350.487 261.497C350.515 261.635 350.578 261.765 350.67 261.872C350.751 261.982 350.864 262.06 350.99 262.093C351.112 262.146 351.242 262.171 351.37 262.168C351.499 262.148 351.617 262.09 351.712 262.001L351.947 261.887C352.07 261.767 352.159 261.614 352.206 261.441L352.265 261.181C352.261 260.994 352.215 260.808 352.131 260.637L351.693 260.009Z" fill="black"/>
<path d="M344.664 279.014C344.443 279.122 344.278 279.321 344.205 279.569C344.132 279.817 344.158 280.092 344.276 280.334C344.394 280.577 344.595 280.766 344.835 280.861C345.075 280.957 345.334 280.949 345.555 280.842C345.776 280.734 345.941 280.534 346.014 280.286C346.087 280.039 346.061 279.764 345.943 279.521C345.825 279.279 345.624 279.089 345.384 278.994C345.144 278.899 344.885 278.906 344.664 279.014Z" fill="black"/>
<path d="M330.805 296.331C330.75 296.217 330.665 296.12 330.561 296.052C330.458 295.984 330.34 295.948 330.222 295.949C330.112 295.974 330.01 296.024 329.923 296.095L329.752 296.178C329.602 296.305 329.503 296.486 329.473 296.691C329.506 296.781 329.549 296.867 329.598 296.949L329.609 297.35C329.723 297.584 329.666 297.902 329.674 298.188C329.71 298.286 329.756 298.381 329.811 298.47C329.838 298.58 329.889 298.685 329.959 298.774C330.103 298.946 330.3 299.057 330.509 299.086C330.612 299.085 330.713 299.06 330.805 299.016C330.897 298.971 330.978 298.906 331.043 298.826C331.123 298.76 331.187 298.677 331.231 298.58C331.275 298.483 331.298 298.376 331.299 298.266C331.303 298.003 331.328 297.729 331.321 297.443L331.343 297.055L331.263 296.891C331.224 296.773 331.163 296.662 331.084 296.566C331.006 296.47 330.911 296.39 330.805 296.331Z" fill="black"/>
<path d="M304.321 328.827C304.193 328.926 304.105 329.071 304.072 329.238C304.04 329.405 304.064 329.583 304.141 329.742C304.219 329.9 304.344 330.029 304.496 330.106C304.647 330.183 304.816 330.203 304.972 330.163C305.1 330.064 305.188 329.919 305.221 329.752C305.253 329.585 305.229 329.407 305.152 329.249C305.074 329.09 304.949 328.962 304.797 328.885C304.646 328.808 304.477 328.787 304.321 328.827Z" fill="black"/>
<path d="M289.283 328.157C289.194 328.087 289.094 328.036 288.989 328.007C288.884 327.978 288.776 327.973 288.672 327.99L288.501 328.073L288.138 328.251C287.976 328.272 287.827 328.344 287.71 328.459C287.592 328.567 287.506 328.709 287.461 328.871L287.424 329.121C287.464 329.283 287.538 329.435 287.642 329.566C287.678 329.692 287.736 329.811 287.813 329.917C287.897 330.013 288.004 330.081 288.121 330.115C288.276 330.179 288.441 330.199 288.599 330.172C288.761 330.151 288.91 330.079 289.026 329.964L289.39 329.787L289.561 329.703C289.642 329.636 289.707 329.548 289.749 329.447C289.792 329.345 289.811 329.234 289.805 329.12C289.782 328.989 289.722 328.867 289.634 328.768C289.623 328.648 289.585 328.53 289.524 328.423C289.463 328.317 289.38 328.226 289.283 328.157Z" fill="black"/>
<path d="M193.923 238.804C177.075 247.659 160.486 257.317 143.744 266.498C127.002 275.678 110.311 284.747 93.2704 293.697C83.6894 298.718 74.0637 303.683 64.3932 308.593C64.1536 308.717 63.9476 308.898 63.7907 309.125C63.6339 309.351 63.5302 309.615 63.4875 309.899C63.4449 310.182 63.4643 310.476 63.5444 310.76C63.6245 311.043 63.7632 311.309 63.95 311.536C70.1225 320.929 76.9953 329.812 84.4955 338.091C86.1996 339.958 88.8845 337.488 87.169 335.598C80.177 327.947 73.7336 319.761 67.9 311.118C101.297 293.988 134.453 276.308 166.837 257.265C176.164 251.759 185.589 246.291 194.688 240.374C195.529 239.819 194.84 238.298 193.923 238.804Z" fill="black"/>
<path d="M92.3065 332.135C92.8705 335.023 93.595 337.886 94.4763 340.707C95.0987 343.014 95.6998 345.331 96.3222 347.638C88.8347 348.384 81.2357 348.278 73.6529 347.324C73.0783 347.285 72.8853 348.192 73.4758 348.426C81.7066 351.266 90.3177 352.037 98.5977 350.676C98.9833 350.604 99.3162 350.373 99.5257 350.033C99.7351 349.692 99.8046 349.269 99.7193 348.853C99.0264 345.913 98.2579 342.981 97.5108 340.039C96.8834 337.109 96.1038 334.206 95.1755 331.345C94.4436 329.41 92.0567 330.43 92.3065 332.135Z" fill="black"/>
<path d="M432.493 80.329C430.77 77.7179 428.681 73.9221 425.197 74.374C423.644 74.7883 422.209 75.5374 420.979 76.5761L415.597 80.1875C412.17 82.4388 408.711 84.6771 405.24 86.8919C391.516 95.5872 377.463 103.718 363.229 111.53C355.172 115.953 347.072 120.338 339.005 124.737C338.907 124.817 338.84 124.931 338.816 125.062C338.792 125.192 338.812 125.331 338.872 125.455C338.932 125.578 339.029 125.679 339.147 125.74C339.265 125.802 339.396 125.82 339.519 125.792C367.975 113.885 394.772 98.0311 420.564 81.0422L423.512 79.1114C424.125 78.5907 424.814 78.1761 425.558 77.8815C427.172 77.5006 428.323 79.7526 429.113 80.9918C431.748 84.9854 434.353 89.0232 437.01 93.0063C438.125 94.6958 440.837 92.8797 439.711 91.1667C437.291 87.5611 434.892 83.9451 432.493 80.329Z" fill="black"/>
<path d="M448.16 87.7129C447.763 87.6713 447.377 87.7944 447.085 88.0561C446.792 88.3179 446.617 88.6975 446.595 89.1145C446.797 91.9164 446.964 94.5907 447.164 97.3352C447.25 98.5409 447.401 99.7725 447.378 100.973C447.385 101.259 447.395 101.66 447.182 101.765C446.968 101.869 445.759 101.56 445.357 101.495C440.216 100.502 435.063 99.6118 429.899 98.824C429.007 98.6785 428.754 100.166 429.648 100.426C432.677 101.211 435.589 102.082 438.573 102.831L442.93 103.897C444.346 104.316 445.789 104.584 447.236 104.697C450.3 104.74 450.325 101.537 450.164 99.0917C449.983 95.8446 449.769 92.5844 449.554 89.3242C449.522 88.9397 449.366 88.5692 449.112 88.2755C448.857 87.9819 448.521 87.7831 448.16 87.7129Z" fill="black"/>
<path d="M432.235 230.936C431.223 228.585 429.634 226.529 427.645 224.996C425.418 223.848 423.347 225.352 421.489 226.316L413.884 230.199L383.723 245.664L375.107 250.185C372.271 251.528 369.565 253.13 367.017 254.972C366.885 255.11 366.8 255.292 366.775 255.492C366.75 255.691 366.785 255.899 366.876 256.085C366.967 256.271 367.108 256.427 367.281 256.53C367.454 256.633 367.649 256.678 367.839 256.659C370.168 255.914 372.43 254.985 374.607 253.881C377.001 252.713 379.373 251.556 381.767 250.388L395.81 243.539L423.623 229.336C424.222 229.044 424.799 228.762 425.397 228.47C425.996 228.179 426.017 228.168 426.492 228.546C427.368 229.527 428.098 230.639 428.655 231.841C429.448 233.195 430.198 234.57 430.893 235.942C431.499 237.44 432.282 238.862 433.221 240.172C433.464 240.443 433.777 240.631 434.115 240.708C434.452 240.785 434.797 240.748 435.097 240.601C435.398 240.455 435.639 240.206 435.786 239.893C435.933 239.58 435.978 239.217 435.914 238.859C435.195 236.019 433.943 233.322 432.235 230.936Z" fill="black"/>
<path d="M442.971 236.781C442.624 238.037 442.368 239.325 442.205 240.635C441.968 241.94 441.698 243.231 441.439 244.489C441.179 245.747 440.852 246.922 440.558 248.109C440.389 248.685 440.137 250.664 439.472 250.872C438.806 251.081 437.238 249.873 436.656 249.548L432.976 247.427C430.573 245.986 428.084 244.727 425.531 243.662C425.357 243.602 425.174 243.608 425.014 243.678C424.853 243.749 424.726 243.88 424.655 244.047C424.583 244.215 424.573 244.408 424.625 244.592C424.677 244.777 424.788 244.94 424.939 245.053C427.498 247.109 430.18 248.981 432.962 250.654C434.349 251.544 435.716 252.502 437.111 253.3C437.668 253.685 438.284 253.953 438.923 254.09C439.562 254.226 440.211 254.228 440.832 254.096C441.453 253.854 441.999 253.454 442.424 252.928C442.849 252.403 443.141 251.768 443.276 251.077C443.748 249.657 444.164 248.178 444.526 246.696C444.888 245.214 445.229 243.743 445.537 242.258C445.916 240.702 446.125 239.092 446.159 237.459C446.214 237.017 446.098 236.557 445.838 236.181C445.577 235.805 445.193 235.543 444.771 235.453C444.348 235.363 443.921 235.452 443.583 235.701C443.246 235.95 443.025 236.339 442.971 236.781Z" fill="black"/>
</g>
<defs>
<clipPath id="clip0_5_68">
<rect width="451.909" height="264.221" fill="white" transform="translate(0 198.104) rotate(-26)"/>
</clipPath>
</defs>
</svg>
