<svg width="208" height="114" viewBox="0 0 208 114" fill="none" xmlns="http://www.w3.org/2000/svg">
<g id="Asset 4 1" clip-path="url(#clip0_5_134)">
<g id="Layer 2">
<g id="OBJECTS">
<path id="Vector" d="M18.74 9C19.13 13.37 19.29 17.73 19.58 22.1L20.05 35.2C20.24 39.56 20.25 43.93 20.35 48.3L20.44 61.39C20.44 70.13 20.36 78.86 20.04 87.59L19.57 100.69C19.29 105.05 19.13 109.42 18.74 113.79H18.54L18.44 61.39L18.54 9H18.74Z" fill="black"/>
<path id="Vector_2" d="M0 96.57L50 96.17L100 95.87C116.66 95.77 133.33 95.54 150 95.67C166.67 95.8 183.32 96 200 96.57V96.77C183.34 97.35 166.68 97.49 150 97.67C133.32 97.85 116.67 97.58 100 97.47L50 97.17L0 96.77V96.57Z" fill="black"/>
<path id="Vector_3" d="M13.35 12.73C14.8124 10.8604 16.1743 8.91429 17.43 6.9C18.05 5.9 18.64 4.9 19.18 3.8C19.45 3.28 19.72 2.8 19.97 2.22C20.3033 1.70466 20.4481 1.08993 20.38 0.479997C20.3484 0.382159 20.2956 0.292487 20.2254 0.217355C20.1552 0.142223 20.0693 0.0834761 19.9739 0.0452904C19.8784 0.00710468 19.7757 -0.00958209 19.6731 -0.00358367C19.5704 0.00241476 19.4704 0.0309511 19.38 0.0799967C18.9163 0.417029 18.5673 0.888246 18.38 1.43C18.12 1.96 17.86 2.49 17.58 3.02C17 4 16.52 5.07 16 6.09C14.93 8.16 13.9 10.25 12.75 12.27C12.54 12.64 13.09 13.09 13.36 12.73H13.35Z" fill="black"/>
<path id="Vector_4" d="M19.16 0.550004C18.95 1.71 19.61 3.06 19.97 4.14C20.33 5.22 20.79 6.5 21.22 7.67C21.65 8.84 22.05 10.03 22.51 11.18C22.8853 12.3998 23.5121 13.5274 24.35 14.49C24.4155 14.5465 24.4957 14.5834 24.5812 14.5964C24.6667 14.6094 24.7542 14.598 24.8336 14.5635C24.9129 14.5291 24.981 14.4729 25.0299 14.4016C25.0788 14.3302 25.1065 14.2465 25.11 14.16C25.1063 12.9474 24.8509 11.7488 24.36 10.64C23.93 9.42 23.43 8.22 23 7C22.57 5.78 22 4.7 21.55 3.54C21.1 2.38 20.73 1.06 19.84 0.360004C19.7886 0.310648 19.7252 0.275552 19.656 0.258181C19.5869 0.240809 19.5144 0.241761 19.4458 0.260944C19.3771 0.280126 19.3147 0.316875 19.2645 0.367566C19.2144 0.418257 19.1784 0.481137 19.16 0.550004Z" fill="black"/>
<path id="Vector_5" d="M193.57 91C195.614 92.1972 197.721 93.2854 199.88 94.26C200.96 94.74 202.05 95.19 203.17 95.58L204.74 96.13C205.289 96.3962 205.909 96.4803 206.51 96.37C206.607 96.3369 206.695 96.2833 206.769 96.2129C206.844 96.1424 206.902 96.0568 206.94 95.9618C206.978 95.8669 206.995 95.7648 206.99 95.6627C206.984 95.5605 206.957 95.4607 206.91 95.37C206.27 94.51 204.81 94.29 203.84 93.95L200.6 92.8C198.38 92.01 196.14 91.24 193.95 90.35C193.5 90.17 193.13 90.77 193.57 91.03V91Z" fill="black"/>
<path id="Vector_6" d="M206.31 95.16C205.706 95.1834 205.116 95.3514 204.59 95.65C204.05 95.89 203.51 96.15 202.98 96.41C201.8 96.99 200.64 97.59 199.47 98.19C198.3 98.79 197.21 99.34 196.11 99.97C194.992 100.492 193.999 101.25 193.2 102.19C193 102.46 193.29 102.86 193.6 102.85C194.801 102.695 195.956 102.289 196.99 101.66C198.16 101.08 199.29 100.42 200.44 99.78C201.59 99.14 202.65 98.55 203.75 97.91C204.85 97.27 206.1 96.78 206.68 95.77C206.712 95.7063 206.728 95.6354 206.725 95.5641C206.722 95.4927 206.702 95.4232 206.665 95.3622C206.628 95.3011 206.576 95.2505 206.513 95.2151C206.451 95.1797 206.381 95.1608 206.31 95.16Z" fill="black"/>
<path id="Vector_7" d="M47.86 96.43L48.3 26.32V25.76H48.86L66.43 25.87L66.88 25.88L66.87 26.32L66.43 96.43L65.98 26.32L66.43 26.76L48.86 26.87L49.41 26.32L49.86 96.43H47.86Z" fill="black"/>
<path id="Vector_8" d="M65.74 68.94C63.0999 71.1823 60.2692 73.19 57.28 74.94C54.44 76.72 51.39 78.42 49.04 80.84C48.87 81.01 49.1 81.33 49.31 81.19C52.17 79.19 55.02 77.31 57.97 75.49C60.9103 73.7547 63.6589 71.7133 66.17 69.4C66.46 69.1 66 68.67 65.74 68.94Z" fill="black"/>
<path id="Vector_9" d="M65.4 73.7C63.99 74.53 62.67 75.62 61.34 76.58C60.01 77.54 58.7 78.47 57.34 79.39C54.63 81.25 51.9 83.09 49.13 84.88C49.0977 84.9095 49.0765 84.9492 49.0701 84.9924C49.0637 85.0357 49.0723 85.0798 49.0947 85.1174C49.117 85.155 49.1516 85.1837 49.1926 85.1988C49.2337 85.2138 49.2787 85.2143 49.32 85.2C52.2 83.53 55.02 81.78 57.77 79.89C59.11 78.97 60.43 78.03 61.77 77.08C63.1325 76.1436 64.4289 75.1145 65.65 74C65.6702 73.963 65.6787 73.9209 65.6746 73.879C65.6705 73.8371 65.6539 73.7974 65.6269 73.765C65.6 73.7327 65.5639 73.7092 65.5235 73.6976C65.483 73.686 65.44 73.6868 65.4 73.7Z" fill="black"/>
<path id="Vector_10" d="M65 78.87C60 82 55 85.18 49.79 88.06C49.56 88.19 49.79 88.52 49.99 88.41C55.3437 85.8279 60.4803 82.8181 65.35 79.41C65.69 79.2 65.38 78.64 65 78.87Z" fill="black"/>
<path id="Vector_11" d="M65.11 83.73C64.462 84.0992 63.8344 84.5031 63.23 84.94C62.63 85.31 62.03 85.67 61.44 86.07C60.2 86.9 58.96 87.71 57.7 88.52C55.22 90.11 52.7 91.7 50.22 93.22C50.1884 93.2456 50.167 93.2817 50.1597 93.3217C50.1524 93.3617 50.1598 93.403 50.1803 93.4381C50.2009 93.4732 50.2334 93.4997 50.2718 93.5129C50.3103 93.5261 50.3522 93.5251 50.39 93.51C53.06 92.16 55.67 90.74 58.21 89.16C59.4367 88.3867 60.6533 87.5933 61.86 86.78C62.48 86.36 63.07 85.9 63.67 85.45C64.2797 85.0469 64.8611 84.6025 65.41 84.12C65.4493 84.0766 65.4722 84.0207 65.4746 83.9622C65.4769 83.9036 65.4586 83.8461 65.4229 83.7997C65.3872 83.7532 65.3363 83.7208 65.2791 83.7081C65.2219 83.6953 65.162 83.7031 65.11 83.73Z" fill="black"/>
<path id="Vector_12" d="M64.65 88C63.9659 88.6744 63.2377 89.3025 62.47 89.88C61.68 90.43 60.84 90.88 60.01 91.39C58.3217 92.2587 56.7959 93.4123 55.5 94.8C55.34 94.98 55.6 95.24 55.76 95.07C57.205 93.738 58.8479 92.6383 60.63 91.81C62.21 90.93 64.11 89.95 65.08 88.36C65.1278 88.303 65.1509 88.2293 65.1443 88.1552C65.1378 88.0812 65.102 88.0127 65.045 87.965C64.988 87.9173 64.9143 87.8941 64.8403 87.9007C64.7662 87.9073 64.6978 87.943 64.65 88Z" fill="black"/>
<path id="Vector_13" d="M65.13 64.86C64.48 65.28 63.92 65.86 63.3 66.34C62.68 66.82 61.95 67.34 61.3 67.82C59.97 68.75 58.62 69.67 57.3 70.57C54.4933 72.41 51.6767 74.22 48.85 76C48.8093 76.0311 48.7814 76.0759 48.7714 76.1261C48.7615 76.1764 48.7703 76.2285 48.7961 76.2727C48.8219 76.3169 48.8629 76.3502 48.9115 76.3663C48.9601 76.3823 49.0129 76.3801 49.06 76.36C51.99 74.64 54.89 72.87 57.72 70.99C59.11 70.08 60.5 69.16 61.85 68.18C62.47 67.74 63.08 67.28 63.67 66.81C64.3186 66.349 64.9095 65.8118 65.43 65.21C65.57 65 65.31 64.74 65.13 64.86Z" fill="black"/>
<path id="Vector_14" d="M66 61.4C65.6513 61.5732 65.3169 61.7738 65 62C64.64 62.2 64.28 62.38 63.93 62.58C63.2 63.02 62.48 63.48 61.76 63.93C60.32 64.85 58.88 65.75 57.43 66.66C54.5433 68.46 51.6433 70.2533 48.73 72.04C48.6929 72.0742 48.6687 72.1201 48.6614 72.17C48.6542 72.2199 48.6643 72.2708 48.6901 72.3142C48.7158 72.3575 48.7557 72.3907 48.803 72.4081C48.8504 72.4256 48.9022 72.4262 48.95 72.41C51.95 70.76 54.88 69.06 57.79 67.27C59.21 66.41 60.62 65.51 62.02 64.62C62.74 64.16 63.45 63.7 64.16 63.21C64.8743 62.7769 65.5442 62.2745 66.16 61.71C66.22 61.55 66.12 61.35 66 61.4Z" fill="black"/>
<path id="Vector_15" d="M63.11 59C60.71 60.55 58.34 62.1 55.85 63.5C53.45 64.6521 51.2437 66.1702 49.31 68C49.2865 68.0346 49.2758 68.0764 49.2798 68.118C49.2838 68.1597 49.3021 68.1987 49.3317 68.2283C49.3613 68.2579 49.4003 68.2762 49.442 68.2802C49.4836 68.2842 49.5254 68.2735 49.56 68.25C53.85 64.78 59.1 62.79 63.24 59.1C63.33 59.06 63.21 58.91 63.11 59Z" fill="black"/>
<path id="Vector_16" d="M65.18 57.38C65.1674 57.3579 65.1476 57.3409 65.1239 57.3318C65.1002 57.3227 65.0741 57.322 65.05 57.33C64.8616 57.3993 64.6834 57.4934 64.52 57.61L64.03 57.94C64.0073 57.9491 63.9868 57.9629 63.9699 57.9807C63.953 57.9984 63.9401 58.0196 63.9322 58.0427C63.9243 58.0659 63.9214 58.0905 63.9239 58.1148C63.9263 58.1392 63.934 58.1627 63.9463 58.1839C63.9587 58.205 63.9755 58.2232 63.9956 58.2372C64.0156 58.2512 64.0385 58.2608 64.0626 58.2651C64.0867 58.2695 64.1114 58.2686 64.1351 58.2626C64.1588 58.2565 64.181 58.2454 64.2 58.23L64.69 57.9C64.7795 57.8491 64.8633 57.7888 64.94 57.72L65.06 57.64L65.17 57.53C65.1858 57.5085 65.1951 57.483 65.1968 57.4564C65.1986 57.4299 65.1928 57.4034 65.18 57.38Z" fill="black"/>
<path id="Vector_17" d="M62.11 54.9C61.0652 55.4635 60.0626 56.1018 59.11 56.81C58.11 57.48 57.04 58.17 56.01 58.81C54.01 60.15 52.01 61.53 49.93 62.89C49.9164 62.9004 49.9071 62.9153 49.9038 62.9321C49.9005 62.9488 49.9034 62.9662 49.912 62.9809C49.9206 62.9956 49.9343 63.0067 49.9505 63.0121C49.9667 63.0175 49.9843 63.0167 50 63.01C52.15 61.78 54.29 60.54 56.38 59.21C57.38 58.57 58.38 57.92 59.38 57.21C60.4365 56.5907 61.44 55.885 62.38 55.1C62.49 55 62.29 54.82 62.11 54.9Z" fill="black"/>
<path id="Vector_18" d="M61.26 49.89C60.2046 50.3122 59.1986 50.8488 58.26 51.49C57.21 52.1 56.18 52.75 55.14 53.39C53 54.66 51 56 48.94 57.32C48.9042 57.3399 48.8778 57.3732 48.8665 57.4126C48.8553 57.452 48.8601 57.4942 48.88 57.53C48.8999 57.5658 48.9332 57.5922 48.9726 57.6035C49.012 57.6147 49.0542 57.6099 49.09 57.59C51.24 56.44 53.33 55.2 55.42 53.94C56.42 53.31 57.51 52.7 58.54 52.05C59.5533 51.4884 60.5023 50.8177 61.37 50.05C61.3763 50.0321 61.3783 50.0131 61.3758 49.9943C61.3734 49.9755 61.3665 49.9576 61.3558 49.942C61.345 49.9264 61.3308 49.9135 61.3141 49.9045C61.2975 49.8955 61.2789 49.8905 61.26 49.89Z" fill="black"/>
<path id="Vector_19" d="M65.2 47H65.13H65.24C65.02 46.94 64.8 47.15 64.63 47.27L64.09 47.6C63.7288 47.8039 63.3465 47.9682 62.95 48.09C62.9024 48.1112 62.8638 48.1487 62.8412 48.1957C62.8187 48.2427 62.8135 48.2962 62.8267 48.3467C62.8399 48.3971 62.8707 48.4413 62.9134 48.4712C62.9561 48.5011 63.0081 48.5148 63.06 48.51C63.4999 48.4006 63.9285 48.25 64.34 48.06C64.5374 47.967 64.7279 47.8601 64.91 47.74C65.09 47.62 65.4 47.45 65.4 47.2V47.31V47.24C65.4111 47.2103 65.4141 47.1782 65.4087 47.1469C65.4034 47.1157 65.3899 47.0864 65.3696 47.062C65.3493 47.0377 65.3229 47.0191 65.2931 47.0082C65.2634 46.9973 65.2312 46.9945 65.2 47Z" fill="black"/>
<path id="Vector_20" d="M65.66 42.07C64.98 42.45 64.37 42.98 63.66 43.39C62.95 43.8 62.33 44.22 61.66 44.65C60.31 45.53 58.94 46.4 57.56 47.24C54.84 48.89 52.11 50.55 49.35 52.14C49.3221 52.1559 49.3018 52.1822 49.2933 52.2132C49.2849 52.2441 49.2891 52.2772 49.305 52.305C49.3209 52.3328 49.3472 52.3532 49.3782 52.3617C49.4091 52.3701 49.4422 52.3659 49.47 52.35C52.34 50.85 55.15 49.29 57.89 47.56C59.22 46.72 60.55 45.87 61.89 45C62.56 44.56 63.21 44.11 63.89 43.63C64.57 43.15 65.23 42.78 65.83 42.27C65.92 42.17 65.78 42 65.66 42.07Z" fill="black"/>
<path id="Vector_21" d="M61.36 39.83C60.2929 40.231 59.2652 40.7298 58.29 41.32C57.29 41.88 56.29 42.46 55.29 43.05C53.2269 44.2251 51.2244 45.5034 49.29 46.88C49.1 47.02 49.29 47.34 49.49 47.21C51.49 45.98 53.41 44.69 55.42 43.51C56.42 42.94 57.42 42.38 58.36 41.84C59.4349 41.3063 60.4767 40.7085 61.48 40.05C61.55 40 61.5 39.79 61.36 39.83Z" fill="black"/>
<path id="Vector_22" d="M65.59 36.9C65.3225 36.9555 65.0701 37.0681 64.85 37.23C64.63 37.37 64.42 37.53 64.2 37.68C63.76 37.99 63.34 38.33 62.91 38.68C62.8681 38.7068 62.8376 38.7484 62.8247 38.7965C62.8117 38.8445 62.8172 38.8957 62.84 38.94C62.8524 38.9617 62.869 38.9807 62.8888 38.996C62.9087 39.0113 62.9313 39.0225 62.9555 39.029C62.9796 39.0355 63.0048 39.0372 63.0296 39.0339C63.0544 39.0307 63.0783 39.0225 63.1 39.01C63.56 38.74 64.03 38.47 64.48 38.18L65.14 37.74C65.2543 37.6589 65.3644 37.5721 65.47 37.48C65.5795 37.3994 65.6713 37.2973 65.74 37.18C65.79 37.05 65.73 36.89 65.59 36.9Z" fill="black"/>
<path id="Vector_23" d="M66.18 33.16C64.7519 33.7995 63.3568 34.5104 62 35.29L57.7 37.54C54.8267 39.04 51.97 40.5667 49.13 42.12C48.98 42.21 49.13 42.43 49.27 42.36C52.15 40.96 55.0133 39.53 57.86 38.07L62.08 35.91C63.51 35.18 65.08 34.52 66.39 33.66C66.63 33.5 66.48 33 66.18 33.16Z" fill="black"/>
<path id="Vector_24" d="M64.65 29.13C62 30.26 59.39 31.69 56.81 33C54.23 34.31 51.53 35.78 49 37.3C48.9684 37.3256 48.947 37.3617 48.9398 37.4017C48.9325 37.4417 48.9398 37.483 48.9604 37.5181C48.9809 37.5532 49.0134 37.5797 49.0519 37.5929C49.0903 37.6061 49.1322 37.6051 49.17 37.59C51.82 36.31 54.42 34.94 57.03 33.59C59.64 32.24 62.34 31.05 64.89 29.59C65.12 29.49 64.94 29 64.65 29.13Z" fill="black"/>
<path id="Vector_25" d="M59.12 28.48C58.8296 28.4902 58.5484 28.5839 58.31 28.75L57.39 29.22L55.68 30.1C54.51 30.72 53.35 31.35 52.19 31.99C52.04 32.07 52.19 32.28 52.31 32.21C53.53 31.66 54.74 31.11 55.94 30.53L57.67 29.69L58.53 29.26C58.8205 29.1595 59.0769 28.9793 59.27 28.74C59.2833 28.7134 59.2897 28.6839 59.2888 28.6542C59.2879 28.6245 59.2797 28.5955 59.2648 28.5697C59.25 28.544 59.229 28.5223 59.2037 28.5066C59.1784 28.491 59.1497 28.4818 59.12 28.48Z" fill="black"/>
<path id="Vector_26" d="M79.58 96.43L79.24 73.2L79 50V49.31H79.71L97.28 49.09H98.19V50L98.31 61.62C98.31 65.49 98.31 69.36 98.18 73.23C98.05 77.1 98 81 97.87 84.82C97.74 88.64 97.58 92.56 97.35 96.43H97.15C96.9233 92.5567 96.75 88.6867 96.63 84.82C96.47 80.95 96.42 77.07 96.34 73.2C96.26 69.33 96.23 65.46 96.21 61.59L96.33 50L97.25 50.92L79.68 50.71L80.38 50L80.11 73.2L79.78 96.43H79.58Z" fill="black"/>
<path id="Vector_27" d="M97.72 60.25C96.22 61.03 94.72 61.94 93.29 62.77L88.94 65.17C87.48 65.97 86.02 66.75 84.56 67.53C83.1 68.31 81.56 69.07 80.09 69.98C79.92 70.08 80.03 70.4 80.24 70.32C83.3054 69.0023 86.2846 67.4926 89.16 65.8C90.62 65.0133 92.07 64.21 93.51 63.39C95.02 62.53 96.57 61.72 98.03 60.77C98.099 60.7289 98.1488 60.6621 98.1684 60.5843C98.1881 60.5064 98.1761 60.424 98.135 60.355C98.1146 60.3209 98.0878 60.2911 98.0559 60.2673C98.024 60.2435 97.9878 60.2263 97.9492 60.2166C97.8714 60.1969 97.789 60.2089 97.72 60.25Z" fill="black"/>
<path id="Vector_28" d="M95.38 66.55C94.743 66.7885 94.133 67.0935 93.56 67.46L91.56 68.54L87.56 70.76C84.91 72.22 82.29 73.76 79.64 75.18C79.6229 75.1898 79.608 75.2029 79.596 75.2186C79.584 75.2342 79.5751 75.2521 79.57 75.2711C79.5649 75.2901 79.5636 75.31 79.5662 75.3295C79.5688 75.3491 79.5751 75.3679 79.585 75.385C79.5948 75.4021 79.608 75.417 79.6236 75.429C79.6392 75.441 79.6571 75.4498 79.6761 75.4549C79.6951 75.46 79.715 75.4614 79.7345 75.4588C79.7541 75.4562 79.7729 75.4498 79.79 75.44C82.45 74 85.13 72.6 87.79 71.15L91.73 69L93.73 67.93C94.3862 67.6303 95.0068 67.258 95.58 66.82C95.68 66.72 95.54 66.51 95.38 66.55Z" fill="black"/>
<path id="Vector_29" d="M97.28 69.48C95.7754 70.2459 94.3102 71.087 92.89 72C91.39 72.86 89.89 73.72 88.38 74.56C85.38 76.22 82.38 77.83 79.38 79.56C79.21 79.66 79.38 79.91 79.53 79.83C82.67 78.43 85.69 76.83 88.7 75.21C90.19 74.4 91.7 73.58 93.13 72.75C94.6741 71.9596 96.164 71.0676 97.59 70.08C97.6696 70.0389 97.7296 69.9679 97.7568 69.8825C97.7839 69.7972 97.7761 69.7046 97.735 69.625C97.6939 69.5454 97.6229 69.4855 97.5375 69.4583C97.4522 69.4311 97.3596 69.4389 97.28 69.48Z" fill="black"/>
<path id="Vector_30" d="M92.19 76.78C91.6673 76.8785 91.1724 77.0901 90.74 77.4L89.23 78.24L86 80L82.77 81.79C81.708 82.3382 80.6855 82.9597 79.71 83.65C79.61 83.72 79.71 83.91 79.79 83.86C81.9915 82.9034 84.1233 81.7941 86.17 80.54L89.42 78.77L91.04 77.89C91.5329 77.6969 91.9744 77.3922 92.33 77C92.3375 76.9763 92.3398 76.9512 92.3365 76.9266C92.3333 76.9019 92.3247 76.8783 92.3114 76.8573C92.298 76.8363 92.2803 76.8185 92.2593 76.8052C92.2383 76.7918 92.2147 76.7832 92.19 76.78Z" fill="black"/>
<path id="Vector_31" d="M97.71 74.18C97.6427 74.1628 97.5726 74.1592 97.5039 74.1695C97.4352 74.1798 97.3693 74.2038 97.31 74.24C97.1424 74.2997 96.9788 74.3698 96.82 74.45C96.4757 74.6164 96.1418 74.8034 95.82 75.01C95.1886 75.3901 94.6016 75.8396 94.07 76.35C94.0315 76.3792 94.0062 76.4224 93.9997 76.4702C93.9931 76.5181 94.0058 76.5665 94.035 76.605C94.0642 76.6435 94.1074 76.6687 94.1552 76.6753C94.2031 76.6819 94.2515 76.6692 94.29 76.64C94.91 76.28 95.49 75.86 96.1 75.47L97 74.9L97.42 74.6C97.53 74.52 97.72 74.42 97.74 74.27C97.7472 74.254 97.7481 74.2358 97.7426 74.2191C97.737 74.2025 97.7254 74.1885 97.71 74.18Z" fill="black"/>
<path id="Vector_32" d="M96.89 79.44C96.1865 79.5559 95.5092 79.7964 94.89 80.15C94.14 80.49 93.4 80.84 92.66 81.15C91.18 81.87 89.7134 82.62 88.26 83.4C85.38 84.98 82.55 86.68 79.76 88.4C79.54 88.54 79.76 88.9 79.97 88.76C82.74 87.04 85.58 85.46 88.48 83.97C89.91 83.24 91.33 82.5 92.78 81.8C93.49 81.46 94.19 81.11 94.9 80.8C95.6523 80.5522 96.3609 80.1878 97 79.72C97.0247 79.6983 97.0421 79.6695 97.0498 79.6375C97.0575 79.6056 97.0552 79.572 97.0432 79.5414C97.0312 79.5108 97.01 79.4847 96.9826 79.4665C96.9552 79.4484 96.9229 79.4391 96.89 79.44Z" fill="black"/>
<path id="Vector_33" d="M96.87 83.65C95.4683 84.1407 94.1265 84.7882 92.87 85.58C91.46 86.32 90.05 87.04 88.64 87.77C85.8667 89.21 83.08 90.62 80.28 92C80.04 92.12 80.28 92.46 80.48 92.35C83.32 91.0167 86.1467 89.6633 88.96 88.29C90.34 87.6 91.72 86.88 93.09 86.17C94.5129 85.5834 95.8567 84.8208 97.09 83.9C97.1058 83.868 97.1118 83.832 97.1071 83.7966C97.1025 83.7613 97.0874 83.728 97.0638 83.7013C97.0402 83.6745 97.0092 83.6553 96.9747 83.6462C96.9402 83.637 96.9038 83.6384 96.87 83.65Z" fill="black"/>
<path id="Vector_34" d="M94.54 88.73C94.052 88.8056 93.5853 88.9827 93.17 89.25C92.69 89.47 92.21 89.7 91.73 89.94C90.73 90.43 89.73 90.94 88.73 91.49C86.73 92.57 84.73 93.68 82.73 94.79C82.49 94.92 82.73 95.27 82.94 95.14C84.94 94.07 86.94 93.05 88.94 92.05C89.94 91.56 90.94 91.05 91.94 90.56L93.36 89.83C93.8769 89.6438 94.3525 89.3585 94.76 88.99C94.7945 88.9608 94.816 88.9191 94.8197 88.8741C94.8235 88.8291 94.8092 88.7845 94.78 88.75C94.7508 88.7155 94.7091 88.694 94.6641 88.6903C94.6191 88.6865 94.5745 88.7008 94.54 88.73Z" fill="black"/>
<path id="Vector_35" d="M94.4 91.37C94.2098 91.4493 94.026 91.5429 93.85 91.65L93.33 91.99C93 92.19 92.66 92.39 92.33 92.57C91.6165 92.9453 90.8819 93.2792 90.13 93.57C89.89 93.66 89.98 94.05 90.24 93.96C91.0382 93.6876 91.8139 93.3533 92.56 92.96C92.92 92.77 93.29 92.56 93.64 92.34C93.82 92.24 93.99 92.13 94.17 92.01C94.3429 91.8855 94.5006 91.7412 94.64 91.58C94.78 91.5 94.59 91.28 94.4 91.37Z" fill="black"/>
<path id="Vector_36" d="M96.15 56.49C95.418 56.7126 94.726 57.0501 94.1 57.49L92.1 58.67L87.88 61.1C86.52 61.88 85.16 62.66 83.8 63.46C82.3474 64.2518 80.9356 65.1162 79.57 66.05C79.5334 66.076 79.5079 66.1147 79.4984 66.1586C79.4889 66.2024 79.4961 66.2482 79.5187 66.287C79.5412 66.3258 79.5774 66.3548 79.6202 66.3683C79.663 66.3818 79.7093 66.3788 79.75 66.36C81.22 65.7 82.6 64.84 84 64C85.4 63.16 86.79 62.38 88.18 61.57L92.26 59.21L94.4 58C95.092 57.6771 95.7296 57.2487 96.29 56.73C96.3082 56.7064 96.3189 56.6778 96.3208 56.6481C96.3227 56.6183 96.3157 56.5887 96.3007 56.5629C96.2857 56.5372 96.2633 56.5165 96.2365 56.5035C96.2096 56.4905 96.1795 56.4858 96.15 56.49Z" fill="black"/>
<path id="Vector_37" d="M95.88 53.54C95.5518 53.6263 95.2359 53.754 94.94 53.92L94.08 54.34C93.44 54.65 92.82 54.98 92.2 55.34C90.97 56.01 89.83 56.77 88.67 57.56C88.6582 57.5666 88.6478 57.5754 88.6394 57.586C88.631 57.5966 88.6247 57.6087 88.621 57.6217C88.6173 57.6347 88.6162 57.6483 88.6177 57.6617C88.6193 57.6752 88.6234 57.6882 88.63 57.7C88.6366 57.7118 88.6454 57.7222 88.656 57.7306C88.6666 57.739 88.6787 57.7453 88.6917 57.749C88.7047 57.7527 88.7183 57.7538 88.7317 57.7523C88.7452 57.7507 88.7582 57.7466 88.77 57.74C89.98 57.05 91.23 56.43 92.45 55.74C93.06 55.41 93.67 55.1 94.28 54.8L95.19 54.34C95.5058 54.2209 95.8024 54.0557 96.07 53.85C96.24 53.73 96.06 53.52 95.88 53.54Z" fill="black"/>
<path id="Vector_38" d="M91.12 53.05C90.1911 53.3652 89.2938 53.767 88.44 54.25L85.56 55.68C83.67 56.62 81.82 57.62 79.96 58.6C79.82 58.68 79.96 58.87 80.08 58.81C81.96 57.94 83.85 57.09 85.72 56.17C86.65 55.72 87.58 55.25 88.5 54.79C89.4546 54.3879 90.3688 53.8956 91.23 53.32C91.2573 53.3003 91.2772 53.2721 91.2864 53.2397C91.2957 53.2074 91.2939 53.1729 91.2812 53.1417C91.2685 53.1106 91.2457 53.0846 91.2165 53.068C91.1872 53.0513 91.1533 53.045 91.12 53.05Z" fill="black"/>
<path id="Vector_39" d="M85.27 59.3C84.8292 59.3984 84.4071 59.5672 84.02 59.8C83.62 60 83.22 60.21 82.83 60.44C82.0551 60.9016 81.3041 61.4022 80.58 61.94C80.36 62.11 80.58 62.47 80.79 62.32C81.541 61.815 82.3188 61.351 83.12 60.93C83.52 60.71 83.92 60.51 84.32 60.31C84.7309 60.1481 85.1205 59.9366 85.48 59.68C85.68 59.52 85.46 59.28 85.27 59.3Z" fill="black"/>
<path id="Vector_40" d="M88.75 50.51C87.9773 50.5992 87.2316 50.8477 86.56 51.24C85.7467 51.5867 84.9467 51.9567 84.16 52.35C82.61 53.13 81.09 53.96 79.6 54.86C79.5816 54.8712 79.5656 54.8858 79.5529 54.9032C79.5402 54.9205 79.531 54.9402 79.5259 54.9611C79.5208 54.982 79.5198 55.0037 79.5231 55.025C79.5264 55.0462 79.5338 55.0666 79.545 55.085C79.5562 55.1034 79.5708 55.1194 79.5882 55.1321C79.6055 55.1448 79.6252 55.154 79.6461 55.1591C79.667 55.1642 79.6887 55.1651 79.7099 55.1619C79.7312 55.1586 79.7516 55.1512 79.77 55.14C81.2567 54.38 82.7867 53.6233 84.36 52.87L86.69 51.81C87.4597 51.5653 88.183 51.1935 88.83 50.71C88.845 50.6933 88.8551 50.6728 88.859 50.6507C88.8629 50.6286 88.8606 50.6059 88.8523 50.5851C88.8439 50.5643 88.83 50.5462 88.8119 50.5329C88.7938 50.5196 88.7724 50.5117 88.75 50.51Z" fill="black"/>
<path id="Vector_41" d="M110.4 95.57L110.05 65.17L109.78 34.76V34H110.51L128.08 33.83H129V34.74L129.1 50C129.1 55.07 129.1 60.14 129 65.21C128.9 70.28 128.87 75.34 128.71 80.41C128.55 85.48 128.42 90.54 128.17 95.61H128C127.76 90.54 127.59 85.48 127.46 80.41C127.33 75.34 127.26 70.27 127.17 65.21C127.08 60.15 127 55 127 50L127.14 34.8L128.03 35.69L110.46 35.52L111.18 34.8L111 65.17L110.65 95.57H110.4Z" fill="black"/>
<path id="Vector_42" d="M122.76 35C120.631 35.7739 118.55 36.6755 116.53 37.7C115.53 38.19 114.47 38.7 113.45 39.21C112.368 39.6857 111.328 40.251 110.34 40.9C110.24 40.98 110.34 41.19 110.44 41.14C111.465 40.6872 112.466 40.1832 113.44 39.63C114.44 39.12 115.44 38.63 116.52 38.13C118.62 37.13 120.82 36.34 122.91 35.34C123.08 35.29 123 35 122.76 35Z" fill="black"/>
<path id="Vector_43" d="M125.74 37.77C124.5 38.25 123.3 38.91 122.1 39.48L118.3 41.28C115.76 42.48 113.24 43.71 110.72 44.92C110.52 45.02 110.72 45.3 110.89 45.21C113.4 44.05 115.89 42.91 118.42 41.74L122.12 40C123.38 39.41 124.71 38.89 125.92 38.2C126.15 38.08 126 37.68 125.74 37.77Z" fill="black"/>
<path id="Vector_44" d="M116.77 40.05C114.63 40.91 112.61 42.05 110.52 43.05C110.41 43.05 110.52 43.24 110.6 43.2C112.751 42.3692 114.831 41.3659 116.82 40.2C116.84 40.1934 116.856 40.1791 116.866 40.1604C116.875 40.1416 116.877 40.1199 116.87 40.1C116.863 40.0801 116.849 40.0637 116.83 40.0543C116.812 40.0449 116.79 40.0434 116.77 40.05Z" fill="black"/>
<path id="Vector_45" d="M126.4 35.34C126.157 35.3878 125.924 35.4756 125.71 35.6C125.46 35.72 125.21 35.83 124.97 35.96C124.49 36.21 123.97 36.47 123.55 36.73C122.55 37.27 121.68 37.86 120.78 38.47C120.64 38.57 120.78 38.79 120.91 38.7C121.84 38.15 122.78 37.64 123.73 37.14C124.19 36.9 124.66 36.66 125.12 36.44L125.87 36.07C126.11 35.9717 126.336 35.8404 126.54 35.68C126.567 35.652 126.586 35.6167 126.593 35.5782C126.601 35.5398 126.597 35.5 126.582 35.4638C126.567 35.4276 126.542 35.3966 126.51 35.3746C126.477 35.3526 126.439 35.3405 126.4 35.34Z" fill="black"/>
<path id="Vector_46" d="M126.56 42.54C123.84 43.83 121.17 45.21 118.44 46.47C117.09 47.08 115.75 47.7 114.44 48.3C113.13 48.9 111.63 49.47 110.29 50.17C110.255 50.1912 110.229 50.2241 110.217 50.2628C110.204 50.3015 110.206 50.3434 110.222 50.3809C110.237 50.4184 110.266 50.449 110.302 50.4672C110.339 50.4854 110.381 50.4899 110.42 50.48C111.869 50.0237 113.291 49.4862 114.68 48.87C116.04 48.3 117.39 47.72 118.73 47.11C121.49 45.85 124.28 44.58 126.92 43.11C127.23 42.88 126.92 42.38 126.56 42.54Z" fill="black"/>
<path id="Vector_47" d="M127.31 39.68C126.32 40.036 125.363 40.4777 124.45 41C123.45 41.48 122.53 42 121.56 42.44C119.56 43.44 117.63 44.37 115.63 45.27C115.56 45.27 115.63 45.42 115.68 45.39C117.68 44.56 119.68 43.73 121.68 42.81C122.68 42.34 123.68 41.81 124.68 41.36C125.64 40.9363 126.554 40.417 127.41 39.81C127.418 39.7947 127.422 39.7774 127.42 39.7602C127.419 39.7429 127.412 39.7265 127.402 39.7127C127.391 39.699 127.377 39.6886 127.361 39.6828C127.344 39.677 127.327 39.676 127.31 39.68Z" fill="black"/>
<path id="Vector_48" d="M125.74 47C125.114 47.1793 124.518 47.4488 123.97 47.8L122.08 48.75C120.77 49.4 119.46 50.02 118.14 50.63C116.82 51.24 115.56 51.8 114.27 52.36C112.98 52.92 111.57 53.44 110.27 54.12C110.258 54.1246 110.246 54.1316 110.236 54.1406C110.227 54.1496 110.219 54.1605 110.213 54.1726C110.208 54.1846 110.204 54.1977 110.204 54.211C110.203 54.2243 110.205 54.2375 110.21 54.25C110.215 54.2625 110.222 54.2739 110.231 54.2837C110.24 54.2934 110.251 54.3013 110.263 54.3069C110.275 54.3125 110.288 54.3156 110.301 54.3162C110.314 54.3167 110.328 54.3146 110.34 54.31C111.739 53.9159 113.109 53.4247 114.44 52.84C115.73 52.31 117.02 51.76 118.29 51.18C119.56 50.6 120.86 49.99 122.13 49.36L124.13 48.36C124.768 48.106 125.359 47.7478 125.88 47.3C125.91 47.2763 125.931 47.2431 125.94 47.2058C125.949 47.1685 125.945 47.1292 125.929 47.0945C125.913 47.0597 125.885 47.0315 125.851 47.0143C125.817 46.9972 125.778 46.9921 125.74 47Z" fill="black"/>
<path id="Vector_49" d="M127.22 48.89C126.734 49.0397 126.275 49.2659 125.86 49.56L124.59 50.26C123.71 50.75 122.82 51.26 121.94 51.7C120.13 52.7 118.32 53.62 116.5 54.55C116.32 54.63 116.5 54.89 116.65 54.81C118.51 53.94 120.36 53.05 122.18 52.11L124.85 50.7L126.13 50.01C126.593 49.8082 127.022 49.5349 127.4 49.2C127.426 49.1701 127.441 49.133 127.445 49.0938C127.448 49.0546 127.44 49.0153 127.42 48.9813C127.4 48.9472 127.37 48.9202 127.334 48.9038C127.299 48.8875 127.259 48.8827 127.22 48.89Z" fill="black"/>
<path id="Vector_50" d="M127.29 52.66C125.84 53.22 124.45 53.95 123.05 54.66L118.68 56.78C115.78 58.19 112.89 59.64 110 61.08C109.81 61.17 110 61.44 110.16 61.36C113.06 60.02 115.97 58.69 118.86 57.36L123.14 55.36C124.59 54.66 126.14 54.02 127.48 53.21C127.71 53 127.56 52.56 127.29 52.66Z" fill="black"/>
<path id="Vector_51" d="M126.69 56.83C125.318 57.3445 123.982 57.9491 122.69 58.64L118.46 60.64L114.36 62.64C112.971 63.1839 111.649 63.8852 110.42 64.73C110.33 64.8 110.42 64.91 110.52 64.9C111.915 64.4729 113.257 63.8892 114.52 63.16C115.9 62.51 117.28 61.86 118.65 61.16L122.65 59.23C124.085 58.6192 125.478 57.9144 126.82 57.12C127 57.05 126.89 56.77 126.69 56.83Z" fill="black"/>
<path id="Vector_52" d="M126.64 59.34C124.987 59.9788 123.397 60.7688 121.89 61.7C120.28 62.56 118.69 63.45 117.13 64.39C116.96 64.49 117.13 64.74 117.29 64.66C118.94 63.87 120.56 63.04 122.17 62.18C123.771 61.4326 125.304 60.5459 126.75 59.53C126.773 59.5145 126.79 59.4907 126.796 59.4635C126.802 59.4362 126.798 59.4076 126.784 59.3834C126.77 59.3593 126.747 59.3413 126.721 59.3332C126.694 59.3252 126.665 59.3276 126.64 59.34Z" fill="black"/>
<path id="Vector_53" d="M125.16 62.6C122.605 63.5032 120.119 64.5894 117.72 65.85C115.22 67.04 112.72 68.24 110.26 69.52C109.99 69.67 110.26 70.06 110.5 69.94C112.98 68.78 115.43 67.58 117.91 66.41C120.419 65.3398 122.863 64.1244 125.23 62.77C125.32 62.72 125.27 62.56 125.16 62.6Z" fill="black"/>
<path id="Vector_54" d="M127.68 64.11C126.951 64.301 126.27 64.6415 125.68 65.11L123.68 66.24C122.21 67.04 120.74 67.83 119.25 68.59C116.25 70.07 113.25 71.44 110.25 72.78C110.12 72.84 110.25 73.06 110.35 73.01C113.437 71.89 116.458 70.598 119.4 69.14C120.87 68.42 122.33 67.68 123.76 66.89C124.51 66.48 125.25 66.05 125.99 65.62C126.674 65.3445 127.289 64.921 127.79 64.38C127.811 64.3577 127.825 64.3297 127.831 64.2995C127.837 64.2692 127.834 64.238 127.822 64.2095C127.81 64.181 127.791 64.1565 127.766 64.1388C127.741 64.1212 127.711 64.1112 127.68 64.11Z" fill="black"/>
<path id="Vector_55" d="M126 68.77C124.817 69.1954 123.676 69.7276 122.59 70.36L118.93 72.23C116.54 73.45 114.14 74.67 111.78 75.96C111.64 76.04 111.78 76.25 111.91 76.18C114.31 75.05 116.67 73.85 119.04 72.65L122.59 70.85C123.804 70.3167 124.968 69.6776 126.07 68.94C126.14 68.88 126.1 68.74 126 68.77Z" fill="black"/>
<path id="Vector_56" d="M128.46 70.62C125.99 71.62 123.6 72.94 121.24 74.19C118.88 75.44 116.42 76.79 114.07 78.19C114.047 78.21 114.032 78.2373 114.027 78.2672C114.022 78.2972 114.028 78.3278 114.044 78.3539C114.059 78.38 114.083 78.3999 114.112 78.4102C114.14 78.4204 114.171 78.4204 114.2 78.41C116.58 77.13 118.96 75.85 121.37 74.63C123.78 73.41 126.28 72.35 128.67 71.1C128.94 71 128.75 70.5 128.46 70.62Z" fill="black"/>
<path id="Vector_57" d="M127.09 74.15C125.661 74.6975 124.291 75.3877 123 76.21C121.6 76.97 120.21 77.72 118.81 78.46C116.01 79.96 113.18 81.4 110.41 82.94C110.2 83.06 110.41 83.36 110.6 83.26C113.47 81.92 116.28 80.42 119.08 78.93L123.17 76.74C124.583 76.0886 125.923 75.2909 127.17 74.36C127.184 74.3423 127.194 74.3212 127.197 74.2987C127.201 74.2763 127.198 74.2532 127.19 74.232C127.182 74.2107 127.169 74.192 127.151 74.1776C127.134 74.1632 127.112 74.1537 127.09 74.15Z" fill="black"/>
<path id="Vector_58" d="M124.35 79.56C123.23 80.11 122.18 80.77 121.09 81.38C120 81.99 118.79 82.62 117.64 83.24C115.31 84.49 112.95 85.7 110.64 87.08C110.612 87.1047 110.594 87.1382 110.589 87.1748C110.583 87.2114 110.59 87.2488 110.609 87.2807C110.628 87.3125 110.657 87.3368 110.692 87.3495C110.727 87.3621 110.765 87.3623 110.8 87.35C113.24 86.22 115.59 84.91 117.97 83.64C120.15 82.48 122.6 81.43 124.47 79.77C124.64 79.67 124.48 79.49 124.35 79.56Z" fill="black"/>
<path id="Vector_59" d="M127.48 75.79C127.09 75.8771 126.721 76.0365 126.39 76.26C126.045 76.4659 125.712 76.6896 125.39 76.93C124.723 77.399 124.101 77.9278 123.53 78.51C123.501 78.5485 123.487 78.5962 123.49 78.6442C123.494 78.6922 123.515 78.7374 123.549 78.7714C123.583 78.8055 123.628 78.8261 123.676 78.8295C123.724 78.8329 123.771 78.8189 123.81 78.79C124.381 78.2296 125.004 77.724 125.67 77.28C125.99 77.06 126.33 76.85 126.67 76.66C127.024 76.4933 127.36 76.2888 127.67 76.05C127.76 75.94 127.62 75.77 127.48 75.79Z" fill="black"/>
<path id="Vector_60" d="M127.24 81.71C126.564 81.98 125.925 82.3363 125.34 82.77C124.68 83.18 124 83.58 123.34 83.98C121.94 84.78 120.51 85.54 119.08 86.28C116.2 87.79 113.25 89.21 110.43 90.82C110.18 90.97 110.43 91.32 110.65 91.21C113.65 89.85 116.5 88.31 119.39 86.81C120.79 86.09 122.18 85.35 123.55 84.57C124.23 84.18 124.91 83.79 125.55 83.38C126.244 83.0245 126.876 82.5584 127.42 82C127.52 81.89 127.43 81.66 127.24 81.71Z" fill="black"/>
<path id="Vector_61" d="M125.87 85.82C125.329 86.1094 124.814 86.4439 124.33 86.82C123.82 87.16 123.33 87.48 122.75 87.82C121.64 88.45 120.49 89 119.34 89.57C117.102 90.5855 115.045 91.9604 113.25 93.64C113.15 93.73 113.25 93.87 113.4 93.78C115.425 92.2363 117.644 90.9654 120 90C121.12 89.45 122.24 88.91 123.32 88.29C124.39 87.7807 125.33 87.0354 126.07 86.11C126.21 85.9 126 85.75 125.87 85.82Z" fill="black"/>
<path id="Vector_62" d="M126.44 88.68C125.866 88.8687 125.324 89.1416 124.83 89.49L123.21 90.49L121.6 91.49C121.21 91.72 120.81 91.97 120.44 92.24C120.366 92.2606 120.296 92.296 120.236 92.3442C120.176 92.3923 120.126 92.4521 120.09 92.52C120.074 92.5442 120.066 92.5728 120.067 92.6017C120.068 92.6306 120.078 92.6585 120.096 92.6816C120.113 92.7046 120.138 92.7216 120.165 92.7303C120.193 92.739 120.222 92.7389 120.25 92.73C120.815 92.5243 121.355 92.2559 121.86 91.93L123.49 91L125.12 90.06C125.669 89.806 126.175 89.4687 126.62 89.06C126.67 89.0361 126.709 88.9932 126.728 88.9407C126.747 88.8882 126.744 88.8304 126.72 88.78C126.696 88.7296 126.653 88.6908 126.601 88.672C126.548 88.6533 126.49 88.6561 126.44 88.68Z" fill="black"/>
<path id="Vector_63" d="M127.94 91.27C127.277 91.4949 126.638 91.7829 126.03 92.13L124.23 93.13C122.98 93.8 121.74 94.48 120.5 95.13C120.22 95.28 120.5 95.71 120.75 95.56L124.5 93.56L126.3 92.56C126.919 92.2448 127.505 91.8696 128.05 91.44C128.058 91.4216 128.062 91.4015 128.061 91.3813C128.059 91.3612 128.053 91.3418 128.042 91.3248C128.031 91.3079 128.016 91.2939 127.998 91.2844C127.98 91.2748 127.96 91.2698 127.94 91.27Z" fill="black"/>
<path id="Vector_64" d="M141.22 96.43C141.04 89.12 140.81 81.81 140.69 74.5V73.88H141.33L158.9 73.5H159.9V74.5C159.9 76.32 159.9 78.15 159.9 79.98C159.9 81.81 159.82 83.64 159.75 85.46C159.61 89.12 159.38 92.77 158.99 96.46H158.79C158.41 92.8 158.18 89.15 158.03 85.46C157.97 83.64 157.9 81.81 157.88 79.98C157.86 78.15 157.88 76.32 157.88 74.5L158.88 75.5L141.31 75.12L141.94 74.5C141.82 81.81 141.59 89.12 141.41 96.43H141.22Z" fill="black"/>
<path id="Vector_65" d="M147.71 74.68C147.162 74.8281 146.635 75.043 146.14 75.32C145.59 75.58 145.04 75.86 144.5 76.15C143.43 76.7 142.39 77.29 141.37 77.94C141.35 77.9525 141.332 77.9689 141.318 77.9882C141.304 78.0075 141.294 78.0294 141.288 78.0526C141.283 78.0758 141.282 78.0999 141.285 78.1235C141.289 78.147 141.298 78.1697 141.31 78.19C141.322 78.2104 141.339 78.2281 141.358 78.2421C141.377 78.2561 141.399 78.2662 141.423 78.2718C141.446 78.2774 141.47 78.2783 141.493 78.2746C141.517 78.2708 141.54 78.2625 141.56 78.25C142.56 77.67 143.62 77.1 144.67 76.55C145.19 76.28 145.72 76.02 146.26 75.76C146.804 75.5314 147.326 75.2536 147.82 74.93C147.846 74.9111 147.864 74.8841 147.872 74.8534C147.88 74.8227 147.878 74.7901 147.865 74.761C147.852 74.732 147.83 74.7081 147.802 74.6934C147.774 74.6786 147.741 74.6739 147.71 74.68Z" fill="black"/>
<path id="Vector_66" d="M152.25 75.21C150.346 75.834 148.496 76.6133 146.72 77.54C144.86 78.41 143.04 79.35 141.23 80.34C141.11 80.41 141.23 80.58 141.34 80.53C143.18 79.67 145.02 78.83 146.85 77.96C148.712 77.1874 150.531 76.3161 152.3 75.35C152.312 75.3394 152.321 75.3255 152.325 75.31C152.329 75.2945 152.328 75.2781 152.322 75.263C152.317 75.248 152.307 75.2348 152.294 75.2254C152.281 75.2159 152.266 75.2106 152.25 75.21Z" fill="black"/>
<path id="Vector_67" d="M157.14 76.27C155.857 76.6441 154.612 77.1362 153.42 77.74C152.1 78.31 150.78 78.89 149.47 79.48C146.89 80.63 144.37 81.9 141.88 83.24C141.79 83.29 141.88 83.47 141.96 83.43C144.53 82.38 147.07 81.31 149.59 80.17L153.41 78.45C154.748 77.9427 156.042 77.3273 157.28 76.61C157.314 76.5847 157.338 76.549 157.349 76.5084C157.36 76.4679 157.357 76.4248 157.341 76.3859C157.325 76.347 157.297 76.3146 157.26 76.2936C157.224 76.2726 157.182 76.2643 157.14 76.27Z" fill="black"/>
<path id="Vector_68" d="M157.16 80.18C155.825 80.6061 154.524 81.1343 153.27 81.76C151.89 82.36 150.52 82.97 149.15 83.59C146.45 84.8 143.72 85.98 141.15 87.41C141 87.49 141.15 87.76 141.28 87.7C143.97 86.62 146.59 85.35 149.23 84.16L153.23 82.38C154.631 81.842 155.994 81.2106 157.31 80.49C157.351 80.4701 157.383 80.4347 157.398 80.3916C157.413 80.3484 157.41 80.3011 157.39 80.26C157.37 80.2189 157.335 80.1874 157.292 80.1724C157.248 80.1574 157.201 80.1601 157.16 80.18Z" fill="black"/>
<path id="Vector_69" d="M157.89 78.43C157.777 78.4196 157.663 78.4196 157.55 78.43L157.26 78.54C157.05 78.62 156.85 78.71 156.64 78.81C156.24 78.9907 155.852 79.1979 155.48 79.43C155.28 79.55 155.48 79.87 155.66 79.74C156.033 79.5203 156.417 79.32 156.81 79.14L157.4 78.89L157.69 78.79C157.793 78.7393 157.893 78.6825 157.99 78.62C158.14 78.6 158 78.4 157.89 78.43Z" fill="black"/>
<path id="Vector_70" d="M157.16 84.37C156.501 84.5204 155.862 84.7521 155.26 85.06L153.35 85.92C152 86.52 150.67 87.14 149.35 87.77C146.72 88.99 144.08 90.22 141.53 91.61C141.35 91.71 141.53 92.03 141.67 91.95C144.34 90.83 146.94 89.58 149.56 88.36L153.46 86.55L155.46 85.62C156.119 85.3643 156.743 85.0284 157.32 84.62C157.42 84.5 157.28 84.35 157.16 84.37Z" fill="black"/>
<path id="Vector_71" d="M157.06 88C154.743 88.7873 152.481 89.7294 150.29 90.82C148 91.82 145.74 92.82 143.49 93.95C143.36 94.01 143.49 94.23 143.58 94.18C145.92 93.29 148.23 92.36 150.58 91.4C152.878 90.5503 155.116 89.5481 157.28 88.4C157.315 88.363 157.337 88.3161 157.343 88.2658C157.349 88.2155 157.34 88.1645 157.315 88.1201C157.291 88.0757 157.253 88.0401 157.207 88.0185C157.161 87.997 157.11 87.9905 157.06 88Z" fill="black"/>
<path id="Vector_72" d="M157.48 90.71C155.4 91.2962 153.404 92.1465 151.54 93.24C151.39 93.32 151.54 93.54 151.67 93.47C153.6 92.54 155.6 91.76 157.56 90.89C157.67 90.84 157.59 90.68 157.48 90.71Z" fill="black"/>
<path id="Vector_73" d="M145.55 88.33C144.806 88.4806 144.084 88.7225 143.4 89.05C142.716 89.3762 142.048 89.7366 141.4 90.13C141.19 90.25 141.4 90.54 141.59 90.45C142.27 90.14 142.99 89.92 143.68 89.62C144.372 89.3402 145.041 89.0058 145.68 88.62C145.697 88.5935 145.707 88.5631 145.709 88.5316C145.712 88.5002 145.706 88.4687 145.693 88.4399C145.68 88.4111 145.661 88.386 145.636 88.3668C145.611 88.3477 145.581 88.335 145.55 88.33Z" fill="black"/>
<path id="Vector_74" d="M158.46 92.76C158.324 92.7597 158.19 92.7799 158.06 92.82L157.74 92.97C157.5 93.07 157.27 93.19 157.04 93.3C156.582 93.5347 156.138 93.7951 155.71 94.08C155.677 94.0986 155.652 94.1295 155.642 94.1661C155.632 94.2027 155.636 94.2419 155.655 94.275C155.674 94.3082 155.705 94.3326 155.741 94.3429C155.778 94.3532 155.817 94.3486 155.85 94.33C156.3 94.09 156.76 93.88 157.22 93.67L157.91 93.36L158.23 93.23C158.352 93.172 158.463 93.0943 158.56 93C158.65 92.93 158.57 92.75 158.46 92.76Z" fill="black"/>
</g>
</g>
</g>
<defs>
<clipPath id="clip0_5_134">
<rect width="207.02" height="113.77" fill="white"/>
</clipPath>
</defs>
</svg>
