<svg width="267" height="332" viewBox="0 0 267 332" fill="none" xmlns="http://www.w3.org/2000/svg">
<path d="M38.9661 187.56C42.9856 186.508 47.0191 185.002 51.0206 183.058C55.1049 181.312 59.1892 179.567 63.2628 177.72L88.1552 166.415C90.3905 165.408 90.2571 160.939 88.0426 161.979C79.7508 165.79 71.4445 169.596 63.1653 173.461C59.1044 175.363 55.0105 177.35 50.9085 179.358C46.8658 181.114 42.8567 183.312 38.9273 185.925C38.3427 186.363 38.254 187.679 38.9598 187.533L38.9661 187.56Z" fill="#1BC5DC"/>
<path d="M36.1042 190.069C36.2301 189.035 36.202 188.032 36.0216 187.116C35.8281 186.239 35.4691 185.487 34.9718 184.917C34.4746 184.348 33.8522 183.976 33.1522 183.831C32.4396 183.664 31.6582 183.758 30.8797 184.102C30.1013 184.447 29.351 185.031 28.698 185.802C28.0169 186.62 27.4588 187.601 27.0728 188.66C26.6867 189.719 26.4846 190.822 26.4842 191.873C26.4802 192.952 26.6821 193.945 27.0723 194.766C27.4625 195.588 28.0291 196.212 28.7227 196.585C29.4015 196.925 30.1844 196.993 30.9948 196.784C31.8052 196.574 32.6151 196.094 33.3453 195.39C33.8855 194.849 34.3703 194.203 34.776 193.485C34.8463 193.452 34.9145 193.401 34.9765 193.337C35.0385 193.272 35.0931 193.194 35.1371 193.109C35.6393 192.158 35.9728 191.11 36.1042 190.069ZM33.6342 193.292C33.1767 193.952 32.6212 194.476 32.0268 194.81C31.4324 195.143 30.8214 195.274 30.2587 195.187C29.683 195.091 29.172 194.798 28.7703 194.331C28.3687 193.864 28.0886 193.24 27.9548 192.511C27.8138 191.856 27.8102 191.121 27.9441 190.37C28.0781 189.619 28.3456 188.875 28.723 188.205C29.1004 187.535 29.576 186.959 30.108 186.527C30.64 186.096 31.2119 185.822 31.7732 185.731C32.3527 185.688 32.8934 185.839 33.347 186.172C33.8006 186.505 34.153 187.008 34.3727 187.637C34.7407 188.968 34.6777 190.569 34.1956 192.134C34.0305 192.532 33.8427 192.92 33.6342 193.292Z" fill="black"/>
<path d="M100.053 161.019C100.159 160.018 100.124 159.048 99.9524 158.158C99.7586 157.277 99.3978 156.522 98.8979 155.951C98.398 155.381 97.7722 155.01 97.0686 154.866C96.356 154.7 95.5745 154.793 94.7961 155.138C94.0177 155.482 93.2674 156.067 92.6143 156.838C91.9333 157.656 91.3752 158.637 90.9891 159.696C90.6031 160.754 90.4009 161.858 90.4006 162.909C90.4027 163.982 90.6082 164.97 90.9995 165.787C91.3908 166.604 91.9562 167.226 92.6472 167.599C93.3209 167.945 94.0998 168.02 94.9073 167.818C95.7148 167.616 96.5233 167.144 97.2534 166.447C97.7952 165.909 98.2805 165.263 98.6841 164.542C98.7545 164.509 98.8226 164.458 98.8846 164.394C98.9466 164.329 99.0012 164.251 99.0453 164.166C99.5739 163.186 99.9225 162.098 100.053 161.019ZM97.5834 164.242C97.1259 164.902 96.5704 165.426 95.976 165.76C95.3816 166.093 94.7705 166.224 94.2079 166.137C93.6322 166.042 93.1212 165.748 92.7195 165.281C92.3179 164.815 92.0378 164.19 91.904 163.461C91.763 162.806 91.7593 162.071 91.8933 161.32C92.0273 160.569 92.2948 159.825 92.6722 159.155C93.0495 158.485 93.5252 157.909 94.0572 157.478C94.5892 157.046 95.1611 156.773 95.7224 156.681C96.3019 156.638 96.8426 156.79 97.2962 157.122C97.7498 157.455 98.1022 157.958 98.3219 158.587C98.7167 159.913 98.6743 161.523 98.2029 163.106C98.0178 163.5 97.8105 163.88 97.5834 164.242Z" fill="black"/>
<path d="M109.36 211.489C109.472 210.482 109.433 209.508 109.245 208.623C109.054 207.742 108.697 206.986 108.201 206.413C107.706 205.84 107.084 205.464 106.384 205.316C105.67 205.153 104.889 205.249 104.112 205.593C103.334 205.937 102.584 206.519 101.929 207.287C101.248 208.105 100.69 209.086 100.304 210.145C99.9182 211.204 99.716 212.307 99.7157 213.358C99.712 214.435 99.9151 215.426 100.307 216.244C100.699 217.062 101.267 217.682 101.962 218.049C102.639 218.39 103.42 218.461 104.229 218.256C105.037 218.05 105.846 217.574 106.577 216.875C107.117 216.334 107.602 215.688 108.007 214.97C108.078 214.939 108.147 214.889 108.209 214.824C108.272 214.759 108.326 214.681 108.369 214.593C108.889 213.627 109.232 212.553 109.36 211.489ZM106.898 214.692C106.441 215.351 105.885 215.875 105.291 216.209C104.697 216.543 104.086 216.673 103.523 216.586C102.947 216.491 102.436 216.197 102.035 215.73C101.633 215.264 101.353 214.639 101.219 213.91C101.077 213.257 101.072 212.523 101.206 211.774C101.339 211.024 101.606 210.282 101.983 209.613C102.36 208.945 102.835 208.37 103.367 207.941C103.898 207.511 104.469 207.24 105.029 207.152C105.61 207.099 106.154 207.244 106.609 207.574C107.065 207.903 107.418 208.406 107.637 209.036C107.994 210.38 107.928 211.983 107.452 213.554C107.289 213.946 107.104 214.327 106.898 214.692Z" fill="black"/>
<path d="M170.973 147.479C171.087 146.482 171.05 145.517 170.864 144.64C170.673 143.755 170.314 142.997 169.816 142.423C169.317 141.848 168.692 141.474 167.988 141.327C167.276 141.161 166.494 141.254 165.716 141.599C164.937 141.943 164.187 142.528 163.534 143.299C162.86 144.113 162.308 145.088 161.925 146.138C161.542 147.188 161.34 148.283 161.337 149.327C161.341 150.403 161.548 151.392 161.942 152.21C162.336 153.028 162.904 153.65 163.598 154.023C164.275 154.362 165.056 154.43 165.864 154.219C166.672 154.009 167.479 153.527 168.206 152.822C168.75 152.287 169.235 151.64 169.637 150.918C169.707 150.884 169.775 150.834 169.837 150.769C169.899 150.704 169.954 150.627 169.998 150.541C170.505 149.584 170.841 148.528 170.973 147.479ZM168.503 150.703C168.046 151.363 167.49 151.887 166.896 152.221C166.301 152.554 165.69 152.685 165.128 152.598C164.552 152.502 164.041 152.208 163.639 151.742C163.238 151.275 162.958 150.651 162.824 149.922C162.687 149.266 162.686 148.532 162.822 147.782C162.958 147.033 163.225 146.292 163.602 145.624C163.978 144.956 164.452 144.38 164.982 143.948C165.512 143.515 166.082 143.238 166.642 143.142C167.221 143.103 167.76 143.256 168.213 143.588C168.666 143.921 169.019 144.422 169.242 145.048C169.598 146.392 169.533 147.995 169.056 149.566C168.886 149.953 168.701 150.333 168.503 150.703Z" fill="black"/>
<path d="M179.244 186.288C179.365 185.289 179.328 184.321 179.135 183.448C178.944 182.568 178.587 181.812 178.091 181.239C177.595 180.665 176.974 180.29 176.274 180.141C175.562 179.971 174.78 180.062 174.001 180.407C173.222 180.752 172.471 181.339 171.819 182.113C171.137 182.928 170.576 183.907 170.188 184.965C169.799 186.023 169.594 187.126 169.591 188.178C169.595 189.254 169.803 190.243 170.196 191.061C170.59 191.879 171.158 192.501 171.852 192.874C172.529 193.214 173.31 193.281 174.118 193.071C174.926 192.86 175.733 192.379 176.46 191.674C177.004 191.138 177.49 190.491 177.891 189.769C177.963 189.744 178.034 189.696 178.097 189.63C178.16 189.565 178.213 189.483 178.252 189.392C178.769 188.424 179.112 187.352 179.244 186.288ZM176.774 189.512C176.319 190.169 175.766 190.692 175.174 191.026C174.583 191.361 173.974 191.494 173.413 191.412C172.836 191.32 172.323 191.028 171.921 190.561C171.519 190.094 171.24 189.467 171.109 188.736C170.967 188.082 170.962 187.348 171.095 186.598C171.227 185.848 171.493 185.105 171.869 184.434C172.245 183.764 172.719 183.187 173.25 182.753C173.781 182.32 174.352 182.045 174.913 181.95C175.491 181.911 176.031 182.065 176.484 182.397C176.937 182.729 177.29 183.23 177.512 183.856C177.869 185.2 177.803 186.803 177.327 188.374C177.173 188.801 176.986 189.215 176.77 189.608L176.774 189.512Z" fill="black"/>
<path d="M236.104 135.007C236.228 134.001 236.193 133.026 236.003 132.146C235.812 131.265 235.455 130.509 234.96 129.936C234.464 129.363 233.842 128.987 233.142 128.839C232.429 128.672 231.648 128.766 230.869 129.11C230.091 129.455 229.341 130.039 228.688 130.81C228.005 131.625 227.445 132.605 227.056 133.662C226.668 134.72 226.463 135.823 226.459 136.875C226.463 137.953 226.669 138.945 227.062 139.766C227.454 140.587 228.02 141.214 228.712 141.593C229.389 141.932 230.17 142 230.978 141.789C231.786 141.579 232.594 141.097 233.32 140.392C233.861 139.851 234.345 139.206 234.751 138.488C234.826 138.461 234.899 138.411 234.964 138.341C235.028 138.271 235.082 138.185 235.12 138.089C235.635 137.128 235.975 136.063 236.104 135.007ZM233.657 138.215C233.2 138.879 232.644 139.408 232.047 139.745C231.451 140.083 230.838 140.216 230.273 140.131C229.696 140.034 229.185 139.737 228.785 139.267C228.384 138.796 228.107 138.166 227.977 137.433C227.834 136.782 227.828 136.049 227.96 135.3C228.092 134.551 228.358 133.809 228.733 133.14C229.108 132.471 229.582 131.896 230.112 131.465C230.643 131.034 231.213 130.76 231.773 130.669C232.351 130.63 232.891 130.783 233.344 131.116C233.797 131.448 234.15 131.949 234.372 132.575C234.728 133.912 234.665 135.507 234.195 137.072C234.038 137.465 233.858 137.847 233.657 138.215Z" fill="black"/>
<path d="M242.148 237.454C242.259 236.447 242.22 235.473 242.032 234.588C241.841 233.707 241.485 232.951 240.989 232.378C240.493 231.805 239.871 231.429 239.171 231.281C238.456 231.118 237.672 231.215 236.893 231.563C236.113 231.911 235.362 232.5 234.709 233.273C234.029 234.087 233.472 235.063 233.085 236.116C232.698 237.17 232.493 238.269 232.488 239.317C232.492 240.395 232.698 241.387 233.091 242.208C233.483 243.029 234.049 243.656 234.741 244.035C235.421 244.372 236.204 244.44 237.014 244.23C237.824 244.021 238.633 243.542 239.364 242.84C239.904 242.299 240.389 241.653 240.795 240.935C240.868 240.9 240.938 240.846 241.002 240.778C241.065 240.709 241.12 240.627 241.164 240.537C241.671 239.572 242.01 238.51 242.148 237.454ZM239.653 240.742C239.196 241.406 238.64 241.935 238.044 242.273C237.448 242.61 236.834 242.744 236.269 242.658C235.694 242.558 235.184 242.259 234.784 241.789C234.384 241.319 234.106 240.691 233.974 239.961C233.832 239.308 233.827 238.574 233.96 237.824C234.093 237.075 234.36 236.333 234.737 235.664C235.114 234.995 235.59 234.421 236.121 233.991C236.653 233.562 237.224 233.291 237.784 233.202C238.363 233.159 238.904 233.311 239.358 233.643C239.811 233.976 240.164 234.479 240.383 235.108C240.751 236.439 240.688 238.04 240.206 239.605C240.044 239.996 239.859 240.377 239.653 240.742Z" fill="black"/>
<path d="M95.2083 169.172C94.5858 172.442 95.2623 175.843 95.521 178.814C95.8807 182.216 96.2649 185.553 96.6574 188.87C97.0499 192.186 97.5409 195.246 98.0073 198.37L98.7315 202.992C98.828 204.641 99.2595 206.116 99.9847 207.277C100.527 207.902 101.425 206.995 101.637 206.095C101.826 204.531 101.736 203.025 101.376 201.7L100.634 196.777C100.192 193.589 99.7506 190.401 99.3171 187.191C98.8836 183.982 98.3843 180.943 98.0341 177.864C97.6838 174.785 97.4101 171.072 96.2581 168.519C96.0266 168.038 95.3612 168.469 95.2411 169.086L95.2083 169.172Z" fill="#1BC5DC"/>
<path d="M110.817 208.735C115.068 205.95 119.01 200.886 122.751 196.825C126.893 192.312 131.017 187.744 135.124 183.119C143.221 173.957 151.375 165.037 159.227 155.56C159.657 155.074 159.963 154.425 160.079 153.757C160.195 153.088 160.112 152.454 159.846 151.994C159.581 151.534 159.156 151.286 158.665 151.305C158.174 151.323 157.656 151.607 157.227 152.093C149.121 161.104 141.236 170.495 133.182 179.674C129.226 184.193 125.271 188.712 121.316 193.231C117.557 197.555 112.97 201.954 109.984 207.262C109.863 207.467 109.787 207.703 109.769 207.933C109.751 208.163 109.791 208.375 109.882 208.536C109.974 208.697 110.113 208.798 110.277 208.823C110.441 208.848 110.621 208.797 110.79 208.676L110.817 208.735Z" fill="#1BC5DC"/>
<path d="M167.694 154.417C167.83 162.785 168.469 170.955 169.604 178.857C169.658 179.123 169.757 179.357 169.895 179.543C170.032 179.73 170.206 179.865 170.404 179.941C170.603 180.018 170.823 180.033 171.05 179.986C171.277 179.94 171.506 179.833 171.724 179.671C172.157 179.354 172.523 178.853 172.746 178.272C172.969 177.691 173.033 177.074 172.923 176.548C171.753 169.007 170.683 161.381 169.785 153.699C169.589 152.126 167.7 152.751 167.721 154.477L167.694 154.417Z" fill="#1BC5DC"/>
<path d="M181.765 183.624C185.583 181.359 189.316 177.319 192.806 173.996C196.297 170.673 200.039 166.956 203.641 163.431C207.243 159.905 210.757 156.346 214.354 152.573C216.189 150.701 218.024 148.828 219.852 146.929C221.599 145.405 223.193 143.519 224.551 141.37C224.911 140.649 224.692 139.657 223.995 139.954C222.304 140.928 220.689 142.292 219.239 143.969C217.402 145.718 215.528 147.649 213.65 149.505C209.963 153.121 206.24 156.747 202.491 160.437C198.743 164.127 195.055 167.792 191.364 171.504C187.736 174.756 184.3 178.468 181.122 182.567C180.638 183.264 181.201 183.923 181.722 183.607L181.765 183.624Z" fill="#1BC5DC"/>
<path d="M235.387 141.995C234.513 145.707 233.985 149.43 233.815 153.074C233.46 156.864 233.179 160.634 232.898 164.403C232.336 172.172 231.889 179.902 231.557 187.595C230.885 203.142 230.727 218.566 230.951 233.819C230.969 234.516 231.204 235.101 231.604 235.445C232.004 235.79 232.537 235.866 233.086 235.657C233.634 235.447 234.153 234.97 234.529 234.329C234.905 233.689 235.106 232.938 235.088 232.241C234.693 217.217 234.676 202.061 235.037 186.772C235.204 179.309 235.449 171.829 235.774 164.329C235.937 160.563 236.144 156.814 236.321 153.054C236.696 149.204 236.739 145.425 236.448 141.789C236.415 141.662 236.35 141.561 236.263 141.498C236.176 141.435 236.07 141.413 235.957 141.435C235.845 141.457 235.731 141.522 235.629 141.621C235.528 141.721 235.444 141.851 235.387 141.995Z" fill="#1BC5DC"/>
<path d="M243.345 241.276C269.345 233.857 295.374 224.927 321.347 218.357C323.884 217.735 323.8 212.574 321.189 213.388C295.244 220.754 269.194 228.13 243.262 239.281C243.045 239.363 242.839 239.552 242.69 239.806C242.541 240.059 242.461 240.357 242.468 240.633C242.475 240.908 242.568 241.14 242.726 241.277C242.884 241.414 243.095 241.444 243.313 241.362L243.345 241.276Z" fill="#1BC5DC"/>
<path d="M16.341 210.14C29.5075 214.63 42.5446 219.413 55.6474 224.026L94.7815 238.361C120.854 247.976 146.787 257.955 172.779 267.737C198.654 277.865 224.589 287.796 250.398 298.096L289.072 313.629C301.904 318.948 314.785 324.138 327.574 329.611C314.408 325.121 301.371 320.338 288.268 315.725L249.134 301.39C223.061 291.775 197.143 281.801 171.137 272.014C145.284 261.87 119.327 251.955 93.5253 241.633L54.8017 226.229C42.0192 220.782 29.1381 215.592 16.341 210.14Z" fill="black"/>
<path d="M88.5643 3.59484C83.8383 20.5056 78.3638 37.1535 72.6653 53.6908C69.8627 61.9897 66.7989 70.1883 63.8739 78.4156L54.6615 102.979C51.4524 111.122 48.316 119.292 45.0571 127.392C41.7982 135.491 38.5084 143.627 35.0381 151.67C28.2218 167.778 21.1587 183.792 13.3325 199.537L12.8971 199.37L50.3065 101.307L88.1288 3.42767L88.5643 3.59484Z" fill="black"/>
<path d="M4.7459 198.302C7.42236 199.546 10.207 200.525 13.0816 201.232C14.5332 201.789 15.973 201.9 17.4341 202.216C18.7609 202.641 20.1295 202.946 21.5317 203.126C21.8341 203.119 22.0722 202.499 21.8273 202.356C20.5812 201.73 19.2814 201.232 17.9369 200.862C16.4852 200.305 15.0829 199.62 13.582 199.191C10.8137 198.185 7.95149 197.439 5.01257 196.957C4.40978 196.921 4.19427 198.09 4.64868 198.338L4.7459 198.302Z" fill="black"/>
<path d="M12.6093 177.123C14.8671 178.37 17.2681 179.292 19.7804 179.876C20.9562 180.327 22.2243 180.495 23.4349 180.812C24.6574 181.251 26.004 181.317 27.3912 181.006C27.8546 180.84 28.2758 179.873 27.9742 179.487C27.0428 178.502 25.909 177.849 24.6456 177.571C23.4843 177.126 22.323 176.68 21.0714 176.469C18.6232 175.633 16.0537 175.148 13.3994 175.021C12.6476 175.027 11.9491 176.673 12.5783 177.16L12.6093 177.123Z" fill="black"/>
<path d="M22.7745 148.386C28.5264 149.759 33.7269 152.786 39.5444 153.989C40.0815 154.195 40.7483 152.978 40.2271 152.557C35.4421 148.708 29.1953 147.93 23.3019 146.968C22.6575 146.868 22.1175 148.232 22.76 148.38L22.7745 148.386Z" fill="black"/>
<path d="M35.2497 123.48C36.3751 123.715 37.4449 124.052 38.5311 124.347C39.6174 124.641 40.645 124.741 41.6151 124.99C42.5852 125.24 43.6941 125.519 44.7204 125.839C45.272 126.051 45.8704 126.01 46.4549 126.137C46.9901 126.319 47.5628 126.39 48.1559 126.348C48.7335 126.275 49.4628 125.156 48.999 124.586C48.6364 124.144 48.201 123.811 47.7116 123.6C47.21 123.295 46.6892 123.029 46.1514 122.805C45.0462 122.426 43.8989 122.166 42.7191 122.028C41.582 121.814 40.4143 121.71 39.2242 121.717C38.0274 121.797 36.7794 122.054 35.5706 122.253C35.0884 122.338 34.7088 123.37 35.2352 123.474L35.2497 123.48Z" fill="black"/>
<path d="M48.441 88.8113C50.277 89.7124 52.0883 90.6777 54.0228 91.3221C54.9809 91.6899 55.9819 91.9023 57.0164 92.2013C57.4744 92.3245 57.9499 92.3921 58.4379 92.4033C58.9524 92.5261 59.4845 92.5909 60.0291 92.597C60.1245 92.5946 60.225 92.5497 60.3152 92.4691C60.4054 92.3886 60.4804 92.2767 60.5288 92.1507C60.5772 92.0247 60.5963 91.8914 60.5831 91.7711C60.57 91.6509 60.5253 91.5503 60.456 91.4847C60.0204 91.1839 59.563 90.9263 59.0865 90.7136C58.6365 90.5408 58.2812 90.2081 57.823 90.0568L55.0686 88.9013C53.1177 88.2997 51.0519 87.9975 49.0251 87.6367C48.9241 87.5719 48.7965 87.5716 48.6703 87.6359C48.6078 87.6678 48.5475 87.7145 48.4929 87.7735C48.4384 87.8325 48.3905 87.9025 48.3522 87.9796C48.3138 88.0568 48.2857 88.1395 48.2694 88.223C48.2531 88.3065 48.249 88.3893 48.2572 88.4665C48.2739 88.6225 48.34 88.7465 48.441 88.8113Z" fill="black"/>
<path d="M57.2735 60.9856C58.4578 61.8591 59.6997 62.6226 60.9927 63.2722C62.3428 63.7904 63.6928 64.3087 65.0694 64.7144C66.4459 65.1201 67.8351 65.5797 69.2363 65.9213C70.5657 66.5311 72.0997 66.5761 73.6667 66.0513C73.8245 65.9426 73.9701 65.7916 74.0919 65.6104C74.2137 65.4292 74.3084 65.2227 74.3684 65.0075C74.4284 64.7922 74.4521 64.574 74.4375 64.3704C74.4229 64.1667 74.3706 63.9832 74.2845 63.8344C73.1997 62.7673 71.8459 62.1716 70.3519 62.1039C69.0107 61.7363 67.6366 61.4542 66.2789 61.1294C64.9213 60.8046 63.5718 60.4584 62.1978 60.1763C60.8237 59.8943 59.2457 59.9266 57.7605 59.8473C57.6613 59.8491 57.5566 59.8953 57.4626 59.979C57.3685 60.0626 57.2903 60.1789 57.24 60.3101C57.1896 60.4413 57.1699 60.5801 57.1838 60.7051C57.1977 60.8302 57.2446 60.9346 57.3171 61.0023L57.2735 60.9856Z" fill="black"/>
</svg>
